<svg width="17" height="16" viewBox="0 0 17 16" fill="none" xmlns="http://www.w3.org/2000/svg">
<path d="M2.53444 7.83196L2.90386 8.20138C3.01597 8.30966 3.19417 8.30811 3.30438 8.1979C3.41459 8.08769 3.41614 7.90949 3.30786 7.79738L2.93844 7.42796C2.71529 7.20488 2.35358 7.20488 2.13044 7.42796L1.96301 7.59538L1.59358 7.22596C1.48147 7.11768 1.30327 7.11923 1.19306 7.22944C1.08285 7.33965 1.0813 7.51785 1.18958 7.62996L1.55901 7.99938C1.78215 8.22246 2.14386 8.22246 2.36701 7.99938L2.53444 7.83196Z" fill="white"/>
<path d="M3.95257 9.62657C3.92933 9.55442 3.87836 9.49446 3.8109 9.4599C3.74343 9.42533 3.665 9.419 3.59286 9.44228L3.09572 9.60257C2.79551 9.69939 2.63054 10.0211 2.72714 10.3214L2.79972 10.5471L2.30229 10.7071C2.16829 10.7502 2.08563 10.8845 2.1075 11.0235C2.12937 11.1626 2.24925 11.265 2.39 11.2649C2.4198 11.2649 2.44941 11.2602 2.47772 11.2509L2.97486 11.0909C3.11916 11.0444 3.23908 10.9424 3.3082 10.8075C3.37733 10.6726 3.39 10.5157 3.34343 10.3714L3.27086 10.146L3.76829 9.986C3.91839 9.93758 4.00088 9.7767 3.95257 9.62657Z" fill="white"/>
<path d="M3.94682 6.1888L3.76939 5.69709C3.66199 5.40068 3.33482 5.24726 3.03825 5.35423L2.81539 5.43452L2.63825 4.9428C2.58468 4.79432 2.42088 4.71738 2.27239 4.77095C2.12391 4.82452 2.04697 4.98832 2.10054 5.1368L2.27797 5.62852C2.38537 5.92508 2.71274 6.07854 3.00939 5.97138L3.23197 5.89109L3.40911 6.38252C3.44371 6.47857 3.52693 6.54887 3.62742 6.56693C3.7279 6.58499 3.83039 6.54806 3.89628 6.47007C3.96216 6.39208 3.98143 6.28486 3.94682 6.1888Z" fill="white"/>
<path d="M14.9401 7.99938L15.3095 7.62996C15.4178 7.51785 15.4163 7.33965 15.306 7.22944C15.1958 7.11923 15.0176 7.11768 14.9055 7.22596L14.5361 7.59538L14.3687 7.42796C14.1455 7.20488 13.7838 7.20488 13.5607 7.42796L13.1912 7.79738C13.117 7.86912 13.0872 7.97535 13.1133 8.07524C13.1395 8.17514 13.2175 8.25315 13.3174 8.2793C13.4173 8.30544 13.5235 8.27566 13.5952 8.20138L13.9647 7.83196L14.1321 7.99938C14.3552 8.22246 14.717 8.22246 14.9401 7.99938Z" fill="white"/>
<path d="M13.1951 10.8084C13.2638 10.9435 13.3838 11.0455 13.5282 11.0915L14.0254 11.2515C14.0537 11.2609 14.0833 11.2656 14.1131 11.2655C14.2538 11.2656 14.3737 11.1632 14.3956 11.0242C14.4175 10.8851 14.3348 10.7509 14.2008 10.7078L13.7034 10.5475L13.776 10.3224C13.8727 10.022 13.7077 9.70003 13.4074 9.60321L12.9102 9.44293C12.7637 9.40464 12.6127 9.48738 12.5662 9.63151C12.5196 9.77564 12.5936 9.93107 12.7348 9.98578L13.2322 10.1458L13.1597 10.3712C13.1124 10.5158 13.1252 10.6733 13.1951 10.8084Z" fill="white"/>
<path d="M12.7254 6.55488C12.8738 6.60846 13.0375 6.53174 13.0912 6.38345L13.2683 5.89203L13.4909 5.97231C13.7875 6.07948 14.1149 5.92602 14.2223 5.62945L14.3997 5.13803C14.4533 4.98954 14.3764 4.82574 14.2279 4.77217C14.0794 4.7186 13.9156 4.79554 13.862 4.94402L13.6849 5.43574L13.462 5.35517C13.1654 5.24902 12.8387 5.40215 12.7306 5.69802L12.5534 6.18974C12.5003 6.33806 12.5772 6.50141 12.7254 6.55488Z" fill="white"/>
<path d="M5.90062 3.55029C6.44741 3.34538 6.81307 2.8267 6.82234 2.24286V0.285714C6.82234 0.127919 6.95025 0 7.10805 0H9.39376C9.55156 0 9.67948 0.127919 9.67948 0.285714V2.24286C9.68875 2.8267 10.0544 3.34538 10.6012 3.55029C11.3311 3.84179 11.7693 4.59237 11.6643 5.37133C11.5593 6.1503 10.938 6.75806 10.1569 6.84587C9.37586 6.93369 8.63511 6.47906 8.35976 5.74286C8.28947 5.54866 8.25266 5.34395 8.25091 5.13743C8.24657 4.98277 8.11992 4.85965 7.96519 4.85971H7.96348C7.8877 4.86017 7.81521 4.89071 7.76195 4.94461C7.70869 4.99851 7.67902 5.07137 7.67948 5.14714C7.68266 5.49371 7.76443 5.83504 7.91862 6.14543C7.49123 6.73527 6.73737 6.99003 6.0398 6.78036C5.34222 6.57068 4.85375 5.94251 4.82239 5.21478C4.79104 4.48705 5.22367 3.81919 5.90062 3.55029ZM10.6012 12.4497C10.0544 12.6546 9.68867 13.1733 9.67948 13.7571V15.7143C9.67948 15.8721 9.55156 16 9.39376 16H7.10805C6.95025 16 6.82234 15.8721 6.82234 15.7143V13.7571C6.81315 13.1733 6.44746 12.6546 5.90062 12.4497C5.18755 12.1663 4.74967 11.4436 4.8286 10.6803C4.90754 9.91703 5.48407 9.2992 6.24005 9.16772C6.33644 9.15143 6.43401 9.14311 6.53176 9.14286C7.0815 9.14244 7.59789 9.40643 7.91948 9.85229C7.76475 10.1631 7.68268 10.5051 7.67948 10.8523C7.67902 10.9281 7.70869 11.0009 7.76195 11.0548C7.81521 11.1087 7.8877 11.1393 7.96348 11.1397H7.96519C8.12133 11.1397 8.24856 11.0144 8.25091 10.8583C8.25177 10.6534 8.28872 10.4503 8.36005 10.2583C8.63514 9.52185 9.37586 9.0669 10.1571 9.15456C10.9383 9.24221 11.5598 9.85 11.6649 10.6291C11.7699 11.4082 11.3316 12.1589 10.6015 12.4503L10.6012 12.4497ZM11.4652 9.13543C11.1516 8.85936 10.7675 8.67569 10.3558 8.60486C9.57274 8.47006 8.77587 8.7513 8.25091 9.34771C7.72611 8.75106 6.9291 8.46977 6.14605 8.60486C5.73428 8.67569 5.35024 8.85936 5.03662 9.13543C4.72897 8.83615 4.54968 8.42901 4.53662 8C4.5499 7.57129 4.72917 7.1645 5.03662 6.86543C5.35024 7.1415 5.73428 7.32516 6.14605 7.396C6.92925 7.53088 7.72629 7.24926 8.25091 6.65229C8.68452 7.14678 9.31065 7.42979 9.96834 7.42857C10.0981 7.42839 10.2277 7.41759 10.3558 7.39629C10.7675 7.32545 11.1516 7.14178 11.4652 6.86572C11.7726 7.16472 11.9518 7.57139 11.9652 8C11.9519 8.42871 11.7726 8.8355 11.4652 9.13457V9.13543Z" fill="white"/>
</svg>
