<svg width="43" height="42" viewBox="0 0 43 42" fill="none" xmlns="http://www.w3.org/2000/svg">
<path d="M11.3396 11.1692L29.8251 3.24398L22.1709 0.0995774C21.8476 -0.0331925 21.4852 -0.0331925 21.1619 0.0995774L2.77783 7.65194L11.3396 11.1692Z" fill="#0F4A12"/>
<path d="M33.2656 4.65735L14.7744 12.5802L21.6665 15.4116L40.5552 7.65197L33.2656 4.65735Z" fill="#0F4A12"/>
<path d="M20.3387 17.7369L12.8582 14.6638V20.4823C12.8582 21.2155 12.2637 21.81 11.5305 21.81C10.7973 21.81 10.2028 21.2155 10.2028 20.4823V13.573L1.58594 10.0331V33.4062C1.58594 33.9446 1.91106 34.4297 2.40911 34.6343L20.3387 42V17.7369Z" fill="#0F4A12"/>
<path d="M22.9941 17.7369V42L40.9237 34.6343C41.4218 34.4298 41.7469 33.9446 41.7469 33.4062C41.7469 32.5128 41.7469 11.011 41.7469 10.0331L22.9941 17.7369Z" fill="#0F4A12"/>
</svg>
