<svg width="43" height="44" viewBox="0 0 43 44" fill="none" xmlns="http://www.w3.org/2000/svg">
<path d="M21.5 0.5C9.64442 0.5 0 10.1444 0 22C0 33.8556 9.64442 43.5 21.5 43.5C33.3556 43.5 43 33.8556 43 22C43 10.1444 33.3556 0.5 21.5 0.5ZM29.4175 27.3839C30.1179 28.0846 30.1179 29.2168 29.4175 29.9175C29.0681 30.2669 28.6095 30.4424 28.1505 30.4424C27.6919 30.4424 27.2332 30.2669 26.8839 29.9175L21.5 24.5333L16.1161 29.9175C15.7668 30.2669 15.3081 30.4424 14.8495 30.4424C14.3905 30.4424 13.9319 30.2669 13.5825 29.9175C12.8821 29.2168 12.8821 28.0846 13.5825 27.3839L18.9667 22L13.5825 16.6161C12.8821 15.9154 12.8821 14.7832 13.5825 14.0825C14.2832 13.3821 15.4154 13.3821 16.1161 14.0825L21.5 19.4667L26.8839 14.0825C27.5846 13.3821 28.7168 13.3821 29.4175 14.0825C30.1179 14.7832 30.1179 15.9154 29.4175 16.6161L24.0333 22L29.4175 27.3839Z" fill="#E44E4E"/>
</svg>
