<svg width="21" height="21" viewBox="0 0 21 21" fill="none" xmlns="http://www.w3.org/2000/svg">
<g clip-path="url(#clip0_594_11679)">
<mask id="mask0_594_11679" style="mask-type:luminance" maskUnits="userSpaceOnUse" x="0" y="0" width="21" height="21">
<path d="M0.332031 0.33301H20.332V20.333H0.332031V0.33301Z" fill="white"/>
</mask>
<g mask="url(#mask0_594_11679)">
<path d="M19.9104 7.74566C19.384 6.47413 18.4229 5.45632 17.1907 4.85847C17.6526 5.74234 17.9143 6.74671 17.9143 7.81113C17.9143 8.78921 17.6967 9.72999 17.2677 10.6073C16.7922 11.5796 16.5894 12.4561 16.5894 13.5384V14.8175L16.6782 14.9831C16.9706 15.5283 17.6658 15.7529 18.2229 15.4853C18.4883 15.3579 18.6954 15.1296 18.8024 14.8559L19.9516 11.916C20.4794 10.5659 20.4647 9.08484 19.9104 7.74566Z" fill="white"/>
<path d="M6.70947 7.50492C7.03217 7.50492 7.29541 7.76809 7.29541 8.09082C7.29541 8.41355 7.03217 8.67676 6.70947 8.67676C6.38674 8.67676 6.12353 8.41355 6.12353 8.09082C6.12353 7.76809 6.38674 7.50492 6.70947 7.50492ZM8.4226 6.43035V2.63785C5.88619 2.99438 3.92822 5.17844 3.92822 7.8116C3.92822 8.60969 4.10568 9.37723 4.45568 10.0929C4.67357 10.5385 4.84303 10.9739 4.9692 11.415C5.15701 11.234 5.37221 11.0646 5.61475 10.9084C7.47791 9.70887 8.4226 8.20223 8.4226 6.43035Z" fill="white"/>
<path d="M13.9584 8.67643C13.6356 8.67643 13.3724 8.41322 13.3724 8.09049C13.3724 7.76775 13.6356 7.50459 13.9584 7.50459C14.2811 7.50459 14.5443 7.76775 14.5443 8.09049C14.5443 8.41322 14.2811 8.67643 13.9584 8.67643ZM12.2466 2.63736V6.43002C12.2466 8.20189 13.191 9.70853 15.0536 10.9082C15.2969 11.0649 15.5126 11.2348 15.7007 11.4165C15.827 10.9748 15.9966 10.5388 16.2148 10.0926C16.5648 9.37697 16.7422 8.60936 16.7422 7.81127C16.7422 5.17768 14.7836 2.99334 12.2466 2.63736Z" fill="white"/>
<path d="M9.79248 12.7511C9.90514 12.9411 10.1676 13.2246 10.3361 13.3354C10.5046 13.2246 10.767 12.9411 10.8797 12.7511C10.7851 12.698 10.6009 12.6324 10.3361 12.6324C10.0713 12.6324 9.88705 12.698 9.79248 12.7511Z" fill="white"/>
<path d="M11.4963 13.8613C11.2122 14.169 10.7805 14.5358 10.337 14.5358C9.89353 14.5358 9.46178 14.169 9.17771 13.8613C8.9542 13.6191 8.5792 13.1469 8.5792 12.7047C8.5792 11.9949 9.33486 11.4596 10.337 11.4596C11.3391 11.4596 12.0948 11.9949 12.0948 12.7047C12.0948 13.1469 11.7198 13.6191 11.4963 13.8613ZM14.4201 11.8933C12.2322 10.4842 11.0757 8.59502 11.0757 6.43002V2.58615H9.59701V6.43002C9.59701 8.5951 8.44021 10.4843 6.25166 11.8934C5.6808 12.261 5.34514 12.6974 5.24854 13.1936C5.25283 13.3072 5.25568 14.8531 5.25568 14.8531C5.25568 15.9471 5.82564 16.8824 6.67393 17.1806C7.36928 17.4249 8.10127 17.1761 8.63186 16.5146C9.07342 15.9642 9.65728 15.6558 10.276 15.6463C10.9284 15.6359 11.5594 15.9497 12.0536 16.5284C12.609 17.179 13.1567 17.3394 13.5617 17.3394C13.7834 17.3393 13.9624 17.2912 14.0762 17.2492C14.879 16.9531 15.4183 15.9903 15.4183 14.8531C15.4183 14.8531 15.421 13.3153 15.425 13.2056C15.3315 12.7044 14.9953 12.2638 14.4201 11.8933Z" fill="white"/>
<path d="M2.75788 7.81096C2.75788 6.74584 3.01991 5.74092 3.48234 4.85662C2.24851 5.45424 1.28601 6.47276 0.759171 7.74549C0.204835 9.08467 0.190226 10.5657 0.71796 11.9158C0.71796 11.9158 1.86534 14.851 1.86722 14.8557C2.05577 15.3381 2.53019 15.6154 3.04253 15.5624C3.52112 15.5129 3.86331 15.2217 4.0828 14.8124V13.5382C4.0828 12.456 3.87995 11.5794 3.40448 10.6071C2.97542 9.72975 2.75788 8.78897 2.75788 7.81096Z" fill="white"/>
<path d="M11.1595 17.2892C10.8999 16.9853 10.5964 16.8179 10.3048 16.8179L10.292 16.8179C9.95373 16.8231 9.69818 17.0545 9.54318 17.2478C9.38564 17.4442 9.21428 17.6179 9.03174 17.7681C9.4167 17.9684 9.84955 18.0786 10.2972 18.0786C10.767 18.0786 11.2163 17.9612 11.6119 17.7457C11.4606 17.6154 11.3092 17.4646 11.1595 17.2892Z" fill="white"/>
</g>
</g>
<defs>
<clipPath id="clip0_594_11679">
<rect width="20" height="20" fill="white" transform="translate(0.332031 0.333008)"/>
</clipPath>
</defs>
</svg>
