<svg width="34" height="45" viewBox="0 0 34 45" fill="none" xmlns="http://www.w3.org/2000/svg">
<path fill-rule="evenodd" clip-rule="evenodd" d="M1.80495 0.038399C1.64222 0.110077 1.55842 0.266435 1.3623 0.882377C0.990582 2.02607 0.915467 2.46528 0.886258 3.60897C0.857049 4.62617 0.936338 5.44063 1.12863 6.2175C1.38352 7.25578 2.01846 8.22239 3.05434 9.15526C3.83534 9.85588 4.0318 10.0924 4.09439 10.3963C4.28669 11.3502 4.55373 11.5948 5.92795 12.0593C6.41651 12.2279 6.51283 12.2747 6.65053 12.4223C6.79658 12.5825 6.80492 12.6081 6.80492 12.8653C6.80492 13.0171 6.77571 13.2747 6.74233 13.4395C6.6255 14.0094 6.59212 14.4777 6.63802 14.9545C6.77989 16.3684 6.9388 16.892 7.57793 18.0188L7.86201 18.5167L7.83698 18.8375C7.79943 19.289 7.64051 19.8758 7.32338 20.7155C6.27081 23.4758 6.10773 24.4846 6.42938 26.3121C6.75937 28.1943 7.04347 29.2751 7.61548 30.8492C8.08317 32.124 8.04979 31.82 8.07065 35.112C8.08317 36.9057 8.11238 38.1552 8.14159 38.4464C8.20418 39.029 8.22087 40.7426 8.16246 40.8396C8.1249 40.9028 8.09986 40.8986 7.89088 40.8101C7.38146 40.5947 6.9468 40.5863 6.525 40.7932C6.2576 40.9239 5.34308 42.0174 5.25928 42.3083C5.20504 42.5026 5.20503 42.836 5.26345 43.0384C5.32187 43.2496 5.56006 43.5152 5.74784 43.5788C5.94013 43.6421 6.43285 43.6083 6.70443 43.5114L6.90925 43.4355L7.22255 43.5662C7.39363 43.6336 7.61513 43.7264 7.71527 43.7689C7.87801 43.8364 7.93678 43.8364 8.32519 43.79C8.58007 43.7605 8.89338 43.7478 9.10201 43.7647C9.74113 43.8195 10.3051 43.6424 10.6977 43.271C10.9317 43.0514 10.9818 42.8912 10.9818 42.355C10.9818 42.1396 11.011 41.7303 11.0444 41.4474C11.0736 41.1688 11.1195 40.6119 11.1446 40.2191C11.1821 39.5733 11.203 39.4426 11.3535 38.919C11.5792 38.1299 11.8045 37.1 11.8588 36.6102C11.8796 36.3906 11.9381 35.7831 11.9881 35.2596C12.0382 34.736 12.0841 34.3014 12.0925 34.293C12.1008 34.2845 12.2093 34.3731 12.339 34.4915C12.5688 34.7026 12.8192 34.8291 13.258 34.9388C13.4291 34.9851 13.467 35.0147 13.4962 35.1162C13.5672 35.4033 13.7428 36.5343 13.8471 37.4208C13.9806 38.5434 13.989 38.5223 13.5713 38.6745C13.1287 38.8389 12.8446 39.1597 12.6064 39.7549C12.4645 40.1137 12.452 40.3754 12.5647 40.5567C12.669 40.7342 13.1203 41.0209 13.4253 41.1056C13.563 41.1435 13.7469 41.2068 13.8387 41.2447L13.9973 41.3122L13.9765 41.5486C13.9639 41.6962 13.8972 41.9158 13.7883 42.1481C13.6256 42.5068 13.6172 42.5152 13.4041 42.5911C13.0866 42.705 12.928 42.8571 12.7358 43.2454C12.4892 43.7433 12.5059 44.0683 12.79 44.368C12.9739 44.5623 13.2327 44.6888 13.7675 44.8448C14.2059 44.9713 14.2477 44.9797 15.1918 44.9924C16.1066 45.0092 16.1942 45.005 16.616 44.908C17.3052 44.752 17.5267 44.6463 17.6937 44.4017C17.8693 44.1399 17.9736 43.7854 17.9402 43.5493C17.9277 43.4481 17.8734 43.2369 17.815 43.0725L17.7149 42.7812L17.8776 42.068C17.9652 41.6797 18.0657 41.2619 18.0991 41.1477C18.1325 41.0297 18.1784 40.8564 18.2034 40.7637L18.2493 40.5862L18.5084 40.6664C18.9177 40.7971 19.394 40.8649 20.0665 40.8944C20.7015 40.9197 21.591 41.0293 21.591 41.0803C21.591 41.0929 21.5117 41.2025 21.4196 41.3167C21.1647 41.6291 20.9268 41.9878 20.8096 42.2496C20.6594 42.583 20.6257 43.2373 20.7512 43.4397C20.8764 43.6382 21.052 43.7267 21.5614 43.849C21.8121 43.908 22.0962 44.005 22.1964 44.0602C22.4554 44.2162 23.1571 44.3135 23.5789 44.2587C24.0049 44.1997 24.1388 44.0985 24.5564 43.5117C24.9448 42.9629 25.1079 42.8237 26.0391 42.258C26.3608 42.0595 26.7408 41.8234 26.8869 41.7261C27.0329 41.6333 27.2377 41.5191 27.3462 41.4812C28.4196 41.0845 28.4071 41.0971 28.687 40.3712C28.7997 40.0715 28.9169 39.7507 28.9461 39.6579L28.9962 39.4851L29.4388 39.7131C30.0028 40.0086 30.3245 40.2535 30.8214 40.7725C31.2724 41.2451 31.5231 41.6421 31.7738 42.2876C31.9536 42.7517 32.0078 42.9544 32.0746 43.3638C32.1706 43.9421 32.2961 44.5286 32.3504 44.6385C32.4755 44.8877 32.7137 44.8118 32.8852 44.4699C33.0733 44.0943 33.1192 43.8536 33.1192 43.2204C33.1192 42.5873 33.0649 42.258 32.8434 41.5701C32.5927 40.7978 32.004 39.8691 31.0432 38.7381C30.2623 37.8094 29.9823 37.4212 29.74 36.9275C29.5018 36.4423 29.4016 36.1257 29.2723 35.4841C29.1972 35.0958 29.1846 34.9015 29.1888 34.184C29.1972 33.2807 29.1304 32.7448 28.9381 32.1117C28.7962 31.6433 28.3616 30.8201 27.7478 29.8535C27.1963 28.9796 27.0795 28.6887 26.9168 27.7685C26.712 26.629 26.3778 25.8057 25.7053 24.7928C25.037 23.7798 24.7612 23.4843 23.6252 22.5345C22.1341 21.2935 21.712 21.011 20.7975 20.6438C20.4883 20.5173 20.1291 20.361 20.004 20.2977C19.6906 20.1375 19.2939 19.8631 19.2939 19.8041C19.2939 19.7788 19.4778 19.4706 19.699 19.1203C20.4383 17.9555 20.9021 16.9257 21.2613 15.6467C21.4787 14.8576 21.8253 14.0554 22.0256 13.8657C22.0882 13.8066 22.2346 13.7476 22.4307 13.7097C22.8442 13.6253 23.6506 13.3509 23.9764 13.1861C24.3648 12.9876 24.6739 12.6668 24.9163 12.2111C25.1962 11.6875 25.3798 11.5273 26.1612 11.1391C27.4185 10.5186 28.1369 9.77577 28.8053 8.39561C29.1227 7.74137 29.3105 7.15881 29.507 6.24315C29.766 5.01478 29.862 3.94276 29.7452 3.60089C29.6659 3.37285 29.5237 3.25901 29.29 3.23793C29.1356 3.22106 28.9058 3.26744 28.3167 3.42801C27.8908 3.54607 27.2099 3.7193 26.8006 3.81627C25.5474 4.11177 25.3847 4.17923 24.1565 4.91359C23.2375 5.46663 22.8407 5.67324 22.0222 6.01511C21.2912 6.32326 20.151 6.89739 20.013 7.02388C19.9629 7.07448 19.8711 7.18832 19.8165 7.27722C19.7206 7.43322 19.7039 7.44166 19.5992 7.39949C19.5366 7.37841 19.1023 7.25613 18.6301 7.12929C18.154 7.0028 17.4941 6.80428 17.1557 6.68622C16.8174 6.57238 16.4123 6.44554 16.2575 6.40759C15.4181 6.21328 14.1733 6.14582 12.7156 6.2175C11.7465 6.2681 11.4999 6.29761 10.8024 6.45397C10.6226 6.49192 10.4349 6.513 10.3806 6.50035C10.3305 6.4877 9.99636 6.15847 9.64134 5.77443C9.18616 5.27233 8.82695 4.93045 8.41316 4.59701C8.09151 4.33946 7.59461 3.90903 7.30635 3.64305C6.2204 2.64693 4.94214 1.60022 4.31971 1.21196C3.86454 0.924892 2.18954 0.0345335 2.04314 0.00501888C1.98438 -0.00798162 1.88006 0.00466794 1.80495 0.038399Z" fill="#0F4A12"/>
</svg>
