<svg width="58" height="60" viewBox="0 0 58 60" fill="none" xmlns="http://www.w3.org/2000/svg">
<path d="M12.5488 44.9121C11.895 45.2594 11.082 45.8789 10.3648 46.2434C9.77789 46.521 9.07135 46.3713 8.48508 46.4784C8.28904 46.1721 7.28523 46.4028 6.71797 46.0995C6.18815 46.0047 5.65311 45.937 5.12543 45.8314C4.99167 45.4749 4.66556 45.582 4.33116 45.5826C3.86023 45.5863 4.00933 45.178 3.48902 45.2653C3.22487 45.2316 2.85059 45.2894 2.72143 45.1389C2.49564 44.8757 2.28058 44.9451 2.07656 45.0186C1.53999 45.1064 0.880088 45.2812 0.411621 45.2668C2.47876 43.0779 5.34509 42.647 8.21664 42.5173C11.3894 41.9444 12.5914 38.3979 12.2445 35.788C12.0984 35.788 12.007 35.788 11.9009 35.788C12.0898 35.3613 12.0632 35.3378 12.0174 34.729C11.8782 33.6609 12.3598 32.6541 11.9303 31.6175C12.2343 30.8028 12.2574 30.6277 12.1803 29.6597C12.2276 28.8882 13.0854 28.1393 12.6227 27.4063C13.2928 26.7483 13.9395 26.1136 14.5932 25.4718C14.0913 25.0926 17.6378 23.226 18.0768 22.6394C20.8076 20.5729 24.6366 20.6014 27.6836 19.5229C28.3064 19.4513 29.1332 19.6288 29.6928 19.4035C30.5177 18.7789 31.8612 19.107 32.7561 18.4337C34.121 17.7454 35.8599 18.2109 36.698 16.6436C37.0833 16.303 36.9275 15.738 37.1352 15.3543C37.3401 15.2542 37.3232 15.1088 37.2904 14.9429C37.1815 14.3914 37.5773 13.9177 37.5389 13.3659C37.5601 13.1954 38.1037 13.1189 38.0043 12.7948C38.3034 12.3914 38.7903 12.2568 38.9093 11.6882C39.0232 11.7111 39.1391 11.7347 39.2753 11.7622C39.3029 10.0511 39.9171 8.61332 41.0164 7.35915C41.3713 6.53374 41.3247 5.34048 42.211 4.8C43.2323 4.11232 43.2025 2.69564 44.2067 1.96174C48.1725 -2.02633 48.9202 0.642076 47.835 4.82999C47.5997 5.92563 47.7633 7.10115 46.7364 7.84392C47.8915 8.1668 48.3311 9.19327 49.3782 9.69549C50.4651 9.47024 51.3723 8.44163 52.6516 8.6984C54.0291 8.49702 55.309 7.70988 56.7123 7.68692C58.9644 7.70437 56.2644 11.9988 55.3876 12.7058C54.8507 13.23 54.3651 13.8351 53.9806 14.4774C53.5327 15.589 52.2654 14.9255 51.7046 15.8219C51.4493 16.3443 50.8545 16.5754 50.3878 16.8211C50.2756 17.5853 49.6988 18.0921 50.1473 18.7584C50.336 18.9781 50.2415 19.2872 50.0016 19.5198C49.7813 20.3587 49.5954 21.1954 48.9561 21.847C47.7225 23.2037 49.8792 25.3748 48.8573 26.8579C46.0597 29.6986 48.3946 29.9606 47.3525 31.7727C46.9917 33.9988 45.1117 35.6432 44.5539 37.7616C44.5199 38.0181 44.5374 38.3548 44.384 38.5062C43.9342 39.0207 44.0569 39.6888 43.7394 40.2642C42.3764 43.5153 42.5988 47.1627 42.1616 50.5467C41.8432 51.8467 42.3515 54.4126 43.0074 55.5416C43.7495 55.7136 44.4772 55.5542 45.0242 55.9508C45.4942 56.6223 46.5155 57.1829 46.6284 57.9958C44.9871 58.6921 43.2461 58.39 41.5072 58.4833C41.4094 58.8864 41.4235 59.2622 41.386 59.6555C40.1969 60.3661 38.4488 59.7617 37.0238 59.7335C35.7304 59.6591 35.958 57.7601 36.0979 56.8463C36.6106 55.3341 35.0429 54.1981 35.3006 52.7024C35.0644 50.8151 34.8327 49.0073 34.7367 47.1098C34.4299 45.4461 34.209 43.7996 34.043 42.1157C33.4574 38.4857 33.3285 39.1578 30.2312 37.8106C29.7136 37.4801 29.2461 37.302 28.6313 37.3509C27.1483 36.3979 27.0679 38.1271 26.9001 39.1208C26.1328 40.7101 25.8101 42.6535 24.3626 43.7929C21.9994 45.5851 18.5315 47.9523 20.3195 51.3176C23.7518 55.9477 23.5963 52.1402 26.0852 55.9594C24.2645 56.8139 24.335 56.1638 22.8486 56.3805C22.2265 56.5617 21.4711 56.4362 20.9576 56.1158C19.863 54.4295 18.5876 52.8475 17.2611 51.391C16.9331 50.2284 16.4328 49.156 15.748 48.1595C14.7322 45.9499 18.2956 45.5367 18.5435 43.6484C19.0417 42.8787 19.4835 42.2238 19.2123 41.2365C18.2468 43.1747 15.0037 45.761 15.2375 47.6533C15.513 48.8845 14.3997 48.8117 14.3687 50.8212C14.2475 51.6763 14.1104 52.5304 14.0272 53.3895C13.9395 54.625 15.1528 56.6611 13.541 57.3286C8.57313 58.4341 10.89 55.0131 11.2158 52.2232C11.7024 50.285 11.784 48.2881 12.3129 46.3695C12.6611 45.713 13.6146 45.4033 13.3575 44.4741C13.0633 44.6418 12.9611 44.9718 12.5488 44.9121ZM38.4544 40.4062C37.6825 41.6674 37.9491 46.7685 38.6618 48.1822C38.4992 45.6172 38.4998 43.0452 38.4544 40.4062ZM40.4927 56.8322C39.233 55.5168 40.3678 52.7477 39.1526 52.1831C38.8467 53.7289 39.4852 56.0249 40.4927 56.8322Z" fill="#0F4A12"/>
</svg>
