<svg width="103" height="122" viewBox="0 0 103 122" fill="none" xmlns="http://www.w3.org/2000/svg">
<g clip-path="url(#clip0_594_11812)">
<path d="M37.2873 101.285C37.2873 98.3656 37.3515 95.6715 37.2617 92.9836C37.2136 91.5984 37.6626 90.998 39.0868 91.1791C39.6128 91.2458 40.1581 91.2458 40.6873 91.2076C41.5983 91.1441 41.9158 91.5508 41.9158 92.4213C41.9126 100.205 41.9222 107.992 41.9511 115.776C41.9543 116.745 41.5502 117.037 40.6071 117.069C37.329 117.18 37.3258 117.212 37.3162 114.022C37.3098 111.693 37.2777 109.362 37.3258 107.033C37.3483 105.975 37.0403 105.514 35.8728 105.543C33.4671 105.603 31.0583 105.581 28.6526 105.479C27.4177 105.425 27.1098 105.876 27.1419 107.036C27.2156 109.892 27.1354 112.755 27.1771 115.614C27.1932 116.647 26.8243 117.018 25.7722 116.967C22.1798 116.799 22.709 117.352 22.6834 113.905C22.6353 106.861 22.6545 99.8175 22.5615 92.7771C22.5454 91.43 22.9624 91.052 24.2903 91.0965C27.376 91.2045 27.1611 90.8391 27.1386 93.9368C27.1258 96.0019 27.0937 98.0702 27.1868 100.132C27.206 100.529 27.7481 101.228 28.0656 101.235C31.0486 101.32 34.0349 101.285 37.2873 101.285Z" fill="white"/>
<path d="M69.0677 55.6211C65.8762 55.6211 62.6815 55.6688 59.4932 55.5544C59.134 55.5417 58.5534 54.6521 58.5053 54.1279C58.2166 50.9667 58.0145 47.796 57.8734 44.6221C57.8221 43.4624 57.5366 42.9128 56.2055 42.9636C53.4823 43.0653 50.7494 43.0494 48.023 42.9764C46.7689 42.9414 46.2973 43.3735 46.3423 44.6062C46.3775 45.607 46.3198 46.63 46.137 47.6117C45.643 50.2836 46.3487 52.479 48.5106 54.2042C48.8506 54.4742 49.0719 54.8936 49.4921 55.4305C48.889 55.5481 48.549 55.672 48.2058 55.672C45.5307 55.6751 42.8556 55.6307 40.1838 55.6529C39.0868 55.6624 38.5479 55.3352 38.4806 54.1279C38.1341 48.0533 37.6883 41.9819 37.3419 35.9073C37.2873 34.932 37.034 34.4205 36.0364 34.0805C32.5562 32.8891 30.4553 30.3983 29.8683 26.8336C29.2589 23.1259 30.8755 20.2443 33.8104 18.0362C35.3436 16.883 35.6355 16.9815 36.5111 18.6939C36.6811 19.0243 36.8287 19.3706 37.0404 19.6724C37.8679 20.8638 38.0636 21.782 36.5175 22.7193C35.0998 23.5803 34.8592 25.1434 35.2698 26.6906C35.6964 28.2919 36.9377 29.2577 38.7115 29.2799C44.6455 29.3498 50.5794 29.3784 56.5134 29.3212C56.9977 29.3181 57.6873 28.6382 57.9215 28.1171C59.7915 23.9647 61.5749 19.7741 63.3872 15.5962C63.6919 14.8941 64.0223 14.2015 64.497 13.1626C65.8602 15.5391 66.9796 17.6232 68.237 19.6216C68.6572 20.2888 69.3404 20.9115 70.0524 21.261C71.8198 22.1283 73.6577 22.8749 75.5021 23.5771C76.4547 23.9393 76.737 24.3777 76.336 25.3562C75.7939 26.6779 75.4636 28.0854 74.8734 29.3816C74.6521 29.8677 73.9592 30.1473 73.4717 30.5031C73.4011 30.554 73.2632 30.5095 73.1573 30.5126C69.1158 30.5953 69.1479 30.6016 68.1921 34.4491C66.9636 39.3958 66.027 44.3711 65.9147 49.4894C65.8858 50.7475 66.0975 51.7038 67.0021 52.587C67.82 53.3877 68.5096 54.3122 69.257 55.1795C69.1896 55.3257 69.1255 55.475 69.0581 55.6211H69.0677ZM34.9298 18.6526C31.9532 20.6287 30.6285 23.3134 31.1224 26.7097C31.5972 29.9725 33.4832 32.2886 36.7613 33.1147C38.0892 33.4483 38.3875 34.0043 38.4549 35.2274C38.7853 41.1463 39.2023 47.0621 39.6224 52.9746C39.6545 53.4353 39.9432 54.2645 40.1421 54.2709C42.3777 54.363 44.6166 54.3312 46.9356 54.3312C46.0985 53.197 44.8732 52.2947 44.8411 51.3543C44.7256 48.2598 45.0432 45.1495 45.2036 41.8993C49.5594 41.8993 53.7228 41.8707 57.883 41.9533C58.2198 41.9597 58.7907 42.7222 58.8292 43.1702C59.1179 46.4934 59.2751 49.8261 59.5381 53.1494C59.5702 53.5719 59.9423 54.3154 60.1828 54.3249C62.38 54.417 64.5868 54.3789 67.1304 54.3789C66.646 53.8356 66.476 53.5656 66.2387 53.3908C64.9139 52.4059 64.683 51.1351 64.6958 49.5211C64.7343 44.0629 65.8762 38.8112 67.3292 33.5976C67.6981 32.2791 67.6115 30.411 68.4743 29.766C69.4173 29.0639 71.2168 29.4928 72.6441 29.4293C72.8045 29.4229 73.0002 29.4833 73.1189 29.4102C73.446 29.2069 73.9111 29.0131 74.0234 28.7081C74.4949 27.4277 74.8541 26.106 75.3096 24.6319C73.4332 23.8694 71.6723 23.1323 69.8921 22.4429C68.7117 21.9854 67.7943 21.3626 67.2138 20.1427C66.5241 18.6939 65.5779 17.3627 64.5964 15.736C64.1441 16.7432 63.8234 17.4548 63.509 18.1697C61.8475 21.9536 60.2085 25.747 58.5021 29.5119C58.3064 29.944 57.7419 30.5095 57.3409 30.5126C51.0862 30.5667 44.8283 30.6143 38.5736 30.4872C36.5175 30.4459 34.949 29.2355 34.176 27.2784C33.4768 25.4992 33.8232 23.8122 35.0549 22.3698C36.4662 20.7113 36.5015 20.7399 34.933 18.6494L34.9298 18.6526Z" fill="white"/>
<path d="M54.9736 105.298V103.192C54.4475 103.15 53.9857 103.087 53.527 103.084C51.1213 103.071 48.7125 103.074 46.3068 103.071C43.1987 103.071 43.2308 103.071 43.3751 100.056C43.4168 99.1791 43.7087 98.8201 44.6004 98.8233C49.2545 98.8519 53.9087 98.8614 58.5628 98.8455C59.4064 98.8455 59.6759 99.1727 59.6759 99.9797C59.6759 105.222 59.6951 110.464 59.7368 115.706C59.7464 116.729 59.3294 117.18 58.2966 117.05C57.1708 116.907 56.0449 116.707 54.9158 116.65C54.4796 116.628 54.0274 116.929 53.5815 117.076C50.3804 118.127 47.1151 116.958 45.5242 114.194C43.9877 111.528 44.6549 107.77 47.1151 105.838C48.9242 104.415 51.0508 104.348 53.2223 104.809C53.7804 104.926 54.3257 105.111 54.98 105.292L54.9736 105.298ZM52.3658 113.158C54.1653 113.206 55.3585 112.278 55.3649 110.826C55.3713 109.511 54.2551 108.539 52.6834 108.485C50.7525 108.418 49.4277 109.324 49.4021 110.728C49.3764 112.119 50.5857 113.111 52.3658 113.158Z" fill="white"/>
<path d="M72.2462 109.791C72.2462 107.938 72.1789 106.086 72.2719 104.24C72.3296 103.071 71.9896 102.655 70.7612 102.69C68.5319 102.756 67.6851 101.587 68.4742 99.5158C68.6121 99.1537 69.4717 98.9122 70.0138 98.8804C72.2206 98.7597 72.2238 98.7978 72.2302 96.6056C72.2366 95.23 72.2815 93.8543 72.2302 92.4818C72.1949 91.5572 72.6215 91.265 73.4651 91.2618C76.5636 91.2554 79.6621 91.2713 82.7574 91.2014C84.05 91.1728 83.9827 91.9957 83.8832 92.7836C83.7838 93.581 84.4862 94.8487 82.7766 94.8519C81.1761 94.8519 79.5723 94.89 77.9717 94.9631C76.0472 95.052 76.9228 96.5453 76.7593 97.4825C76.5893 98.4547 77.0159 98.9789 78.1032 98.8741C78.7383 98.8105 79.383 98.855 80.0245 98.855C82.2313 98.8518 83.014 99.9003 82.2859 101.962C82.1928 102.229 81.8047 102.467 81.5032 102.569C81.1632 102.68 80.7655 102.626 80.3902 102.633C77.9525 102.673 76.7368 103.878 76.7432 106.248C76.7496 109.314 76.7111 112.383 76.7721 115.449C76.7945 116.615 76.4064 117.034 75.2068 117.012C71.5695 116.945 72.3072 117.336 72.243 114.08C72.2142 112.653 72.2398 111.223 72.2398 109.797H72.2495L72.2462 109.791Z" fill="white"/>
<path d="M16.1883 86.9219C12.7915 87.462 12.4258 87.2841 11.085 84.6058C7.1975 76.8442 12.8749 66.8301 21.5705 66.1089C27.4275 65.6228 33.663 70.7538 34.4552 76.6695C34.9332 80.2469 34.0896 83.5034 32.1137 86.4835C31.0392 88.1006 29.4322 87.0427 27.7258 87.4779C28.0979 86.7249 28.2711 86.3691 28.4507 86.0165C30.8339 81.2985 31.0649 76.5297 28.3481 71.9197C25.4805 67.0493 18.6966 67.0683 15.8001 71.9166C13.1892 76.2914 13.1603 80.8378 15.4184 85.3969C15.6462 85.8576 15.8803 86.3119 16.1915 86.9251L16.1883 86.9219Z" fill="white"/>
<path d="M54.1077 77.2001C56.0868 75.3351 58.1011 74.4233 60.5549 74.9348C62.6943 75.3828 64.4007 77.2541 64.4745 79.3923C64.5547 81.6639 64.4296 83.945 64.513 86.2166C64.5707 87.8211 63.4545 87.3127 62.6526 87.3667C61.793 87.4239 60.9077 87.5605 60.9783 86.1722C61.0649 84.4279 61.0071 82.6774 60.9879 80.93C60.9654 78.8712 60.0834 77.737 58.377 77.5273C56.43 77.2859 54.6081 78.3978 54.3354 80.3041C54.0756 82.1245 54.0628 83.999 54.1558 85.8417C54.2232 87.1507 53.7902 87.5351 52.5392 87.4462C51.4487 87.3667 50.4383 87.5637 50.4639 85.8671C50.5473 80.4153 50.4736 74.9602 50.5024 69.5052C50.5088 68.3169 50.4254 67.3765 48.8537 67.421C48.6228 67.4274 48.3758 66.9222 48.1353 66.6521C48.4271 66.4329 48.7158 66.0294 49.0173 66.0199C51.3171 65.9595 53.617 65.95 55.9136 65.9945C56.2215 66.0008 56.5198 66.4043 56.8245 66.6236C56.5166 66.8968 56.1926 67.4178 55.9039 67.3988C54.2777 67.2939 54.0628 68.1994 54.0885 69.4956C54.1398 71.9579 54.1045 74.4233 54.1045 77.1937L54.1077 77.2001Z" fill="white"/>
<path d="M62.5307 104.11C62.5307 100.297 62.5724 96.4816 62.505 92.6691C62.4858 91.5094 62.9156 91.214 63.9997 91.233C67.5697 91.2966 67.1271 90.874 67.1399 94.2354C67.1656 101.12 67.1592 108.008 67.1592 114.896C67.1592 117.025 67.1495 117.025 65.0646 117.031C64.7439 117.031 64.4167 116.999 64.1024 117.04C62.9252 117.203 62.5178 116.774 62.5435 115.55C62.6205 111.738 62.5724 107.922 62.5724 104.11C62.5595 104.11 62.5435 104.11 62.5307 104.11Z" fill="white"/>
<path d="M72.4741 87.3064C71.2713 87.3064 70.1711 87.3635 69.0901 87.2682C68.7822 87.2396 68.3556 86.8139 68.2498 86.4867C67.2298 83.2619 67.836 80.231 69.9466 77.6703C71.855 75.351 74.4884 74.3629 77.5517 74.938C80.3454 75.4622 82.4367 77.9657 82.5907 80.7647C82.6452 81.7782 82.209 82.0419 81.2756 82.0356C78.6005 82.026 75.9286 82.0801 73.2535 82.1023C71.5279 82.115 71.2777 82.3628 71.6016 84.0562C71.7973 85.0792 72.1373 86.0736 72.4741 87.3064ZM71.8133 80.2945C73.8309 80.2945 75.6816 80.3072 77.5356 80.2914C79.0367 80.2786 79.6269 79.3764 78.7256 78.1913C78.1771 77.4701 77.1892 76.822 76.3007 76.6599C74.1003 76.2596 72.5735 77.54 71.8133 80.2945Z" fill="white"/>
<path d="M38.2913 77.7526C37.2328 77.2666 36.4854 76.9203 35.7349 76.5771C36.2994 76.0402 37.0115 75.5859 37.3868 74.9409C37.8647 74.1181 38.3073 73.1459 38.3394 72.2245C38.3939 70.6392 39.4364 70.9886 40.3409 70.9346C41.332 70.8743 41.903 71.0903 41.903 72.3167C41.8998 75.0013 41.9735 75.0013 44.6198 75.0172C44.9405 75.0172 45.2613 75.0267 45.5788 75.0299C46.4288 75.0458 47.3494 74.8774 47.3237 76.2276C47.3013 77.5175 46.4 77.2697 45.6334 77.2856C44.9405 77.2983 44.2381 77.3555 43.5549 77.2666C42.166 77.0886 41.826 77.7113 41.8709 78.979C41.9511 81.3015 41.8132 83.6303 41.9254 85.9495C41.996 87.4428 41.1235 87.3919 40.1035 87.3919C39.0868 87.3919 38.2143 87.4459 38.2656 85.9591C38.3586 83.1664 38.2913 80.3706 38.2913 77.7495V77.7526Z" fill="white"/>
<path d="M89.4776 77.3873C90.6355 76.5613 91.6747 75.6494 92.8679 75.0394C93.4934 74.7217 94.4525 74.7471 95.1613 74.9505C96.3834 75.3 96.8164 76.3357 96.3834 77.4794C95.9568 78.6168 94.9336 78.7217 93.8302 78.4929C92.9 78.2991 91.4566 77.7336 91.1166 78.1085C90.2987 79.0108 89.8047 80.3293 89.5417 81.5556C89.2819 82.7725 89.3878 84.0909 89.4744 85.3522C89.561 86.604 89.2113 87.1123 87.8225 87.16C86.2604 87.214 86.2283 86.407 86.2476 85.2951C86.2893 83.0711 86.2476 80.8471 86.2957 78.6264C86.3246 77.3936 86.1995 76.3865 84.6117 76.2944C84.384 76.2817 84.1819 75.8242 83.9702 75.5732C84.2557 75.3953 84.5219 75.1093 84.8266 75.0648C85.404 74.9822 86.0006 75.0299 86.5876 75.0362C88.2726 75.0511 89.2349 75.8358 89.4744 77.3905L89.4776 77.3873Z" fill="white"/>
<path d="M87.4376 93.7652C87.4279 92.2497 88.4383 90.998 89.6989 90.9662C90.9819 90.9344 92.0147 92.1512 92.0115 93.6889C92.0115 95.3029 90.9659 96.5864 89.654 96.5896C88.4223 96.5928 87.4504 95.3506 87.4376 93.762V93.7652ZM88.0085 93.457C87.9893 95.0837 88.6308 95.9542 89.67 95.9669C90.7798 95.9796 91.5144 95.0614 91.5015 93.6699C91.4919 92.5293 90.9915 91.6493 89.7983 91.6016C88.4479 91.5476 88.0438 92.5388 88.0085 93.457Z" fill="white"/>
<path d="M34.9297 18.6526C36.4982 20.7432 36.4629 20.7146 35.0516 22.373C33.8231 23.8154 33.4735 25.5024 34.1727 27.2816C34.9425 29.2387 36.5142 30.4492 38.5702 30.4905C44.825 30.6144 51.0829 30.5699 57.3376 30.5159C57.7353 30.5127 58.2999 29.9472 58.4987 29.5151C60.2052 25.7502 61.8442 21.9568 63.5057 18.1729C63.8201 17.4581 64.1408 16.7496 64.5931 15.7393C65.5746 17.3659 66.5208 18.6971 67.2104 20.1459C67.791 21.3627 68.7084 21.9886 69.8887 22.4461C71.6689 23.1323 73.4267 23.8726 75.3063 24.6351C74.854 26.1093 74.4916 27.4309 74.0201 28.7113C73.9078 29.0163 73.4459 29.2101 73.1155 29.4134C73.0001 29.4865 72.8012 29.4261 72.6408 29.4325C71.2135 29.496 69.414 29.0671 68.471 29.7693C67.6082 30.411 67.6948 32.2823 67.3259 33.6008C65.8729 38.8144 64.731 44.063 64.6925 49.5244C64.6797 51.1383 64.9106 52.4123 66.2353 53.3941C66.4727 53.572 66.6427 53.8388 67.127 54.3821C64.5835 54.3821 62.3799 54.4202 60.1795 54.3281C59.9389 54.3186 59.5701 53.5751 59.5348 53.1526C59.275 49.8294 59.1146 46.4966 58.8259 43.1734C58.7874 42.7254 58.2165 41.9629 57.8797 41.9565C53.7195 41.8739 49.5561 41.9025 45.2002 41.9025C45.0431 45.1559 44.7255 48.2631 44.8378 51.3575C44.8731 52.3011 46.0951 53.2002 46.9323 54.3345C44.6133 54.3345 42.3744 54.3694 40.1387 54.2741C39.9399 54.2646 39.6544 53.4385 39.6191 52.9779C39.1989 47.0653 38.7819 41.1496 38.4516 35.2307C38.3842 34.0107 38.0859 33.4547 36.758 33.1179C33.4799 32.2919 31.597 29.9726 31.1191 26.7129C30.6219 23.3166 31.9499 20.632 34.9265 18.6558L34.9297 18.6526Z" fill="#DEED6E"/>
<path d="M71.8135 80.2945C72.5705 77.54 74.0973 76.2564 76.3008 76.6599C77.1893 76.8219 78.1773 77.4701 78.7257 78.1913C79.6303 79.3763 79.0401 80.2786 77.5357 80.2913C75.685 80.3072 73.831 80.2945 71.8135 80.2945Z" fill="white"/>
<path d="M88.4512 94.8074C88.7912 93.9401 89.1055 92.3547 89.4712 92.342C92.1206 92.2531 89.4102 94.2356 90.35 94.8074H88.4512Z" fill="white"/>
</g>
<defs>
<clipPath id="clip0_594_11812">
<rect width="102" height="122" fill="white" transform="translate(0.5)"/>
</clipPath>
</defs>
</svg>
