<svg width="48" height="48" viewBox="0 0 48 48" fill="none" xmlns="http://www.w3.org/2000/svg">
<path d="M22.9775 5.3625H13.6588C12.3722 5.3625 11.3291 4.31944 11.3291 3.03281C11.3291 1.74619 12.3722 0.703125 13.6588 0.703125H22.9775C24.2642 0.703125 25.3072 1.74619 25.3072 3.03281C25.3072 4.31944 24.2643 5.3625 22.9775 5.3625Z" stroke="white" stroke-width="1.40625" stroke-miterlimit="10" stroke-linecap="round" stroke-linejoin="round"/>
<path d="M13.6587 14.6954V17.0891C13.6587 17.549 13.5566 18.0031 13.3597 18.4188L1.78181 42.861C0.805588 44.9218 2.30868 47.2969 4.58906 47.2969H32.047C34.3274 47.2969 35.8305 44.9218 34.8543 42.861L23.2764 18.4188C23.0796 18.0031 22.9775 17.549 22.9775 17.0891V5.36255H13.6587V11.4141" stroke="white" stroke-width="1.40625" stroke-miterlimit="10" stroke-linecap="round" stroke-linejoin="round"/>
<path d="M12.4717 27.5505L5.64015 41.9728C5.15209 43.0032 5.90359 44.1908 7.04378 44.1908H29.5933C30.7335 44.1908 31.485 43.0032 30.9969 41.9728L24.1652 27.5505C24.0368 27.2793 23.7635 27.1064 23.4634 27.1064H13.1735C12.8734 27.1064 12.6002 27.2793 12.4717 27.5505Z" stroke="white" stroke-width="1.40625" stroke-miterlimit="10" stroke-linecap="round" stroke-linejoin="round"/>
<path d="M15.2114 34.8722C16.0691 34.8722 16.7645 34.1768 16.7645 33.319C16.7645 32.4612 16.0691 31.7659 15.2114 31.7659C14.3536 31.7659 13.6582 32.4612 13.6582 33.319C13.6582 34.1768 14.3536 34.8722 15.2114 34.8722Z" stroke="white" stroke-width="1.40625" stroke-miterlimit="10" stroke-linecap="round" stroke-linejoin="round"/>
<path d="M22.9775 39.5314C23.8353 39.5314 24.5306 38.836 24.5306 37.9782C24.5306 37.1204 23.8353 36.425 22.9775 36.425C22.1197 36.425 21.4243 37.1204 21.4243 37.9782C21.4243 38.836 22.1197 39.5314 22.9775 39.5314Z" stroke="white" stroke-width="1.40625" stroke-miterlimit="10" stroke-linecap="round" stroke-linejoin="round"/>
<path d="M34.1013 13.128C35.8169 13.128 37.2076 11.7373 37.2076 10.0217C37.2076 8.30623 35.8169 6.91553 34.1013 6.91553C32.3858 6.91553 30.9951 8.30623 30.9951 10.0217C30.9951 11.7373 32.3858 13.128 34.1013 13.128Z" stroke="white" stroke-width="1.40625" stroke-miterlimit="10" stroke-linecap="round" stroke-linejoin="round"/>
<path d="M35.6144 2.6149C35.8115 1.7801 35.2945 0.943568 34.4597 0.746449C33.6249 0.54933 32.7884 1.06627 32.5913 1.90107C32.3942 2.73586 32.9111 3.57239 33.7459 3.76951C34.5807 3.96663 35.4172 3.44969 35.6144 2.6149Z" stroke="white" stroke-width="1.40625" stroke-miterlimit="10" stroke-linecap="round" stroke-linejoin="round"/>
<path d="M34.1011 3.80933V6.91564" stroke="white" stroke-width="1.40625" stroke-miterlimit="10" stroke-linecap="round" stroke-linejoin="round"/>
<path d="M28.0745 15.2722C28.8409 14.8871 29.15 13.9535 28.7648 13.1871C28.3797 12.4207 27.4462 12.1116 26.6797 12.4967C25.9133 12.8819 25.6042 13.8154 25.9894 14.5818C26.3745 15.3483 27.308 15.6574 28.0745 15.2722Z" stroke="white" stroke-width="1.40625" stroke-miterlimit="10" stroke-linecap="round" stroke-linejoin="round"/>
<path d="M28.7236 13.1097L31.4138 11.5566" stroke="white" stroke-width="1.40625" stroke-miterlimit="10" stroke-linecap="round" stroke-linejoin="round"/>
<path d="M40.0352 15.2388C39.2923 14.8099 39.0377 13.8601 39.4667 13.1172C39.8956 12.3743 40.8454 12.1198 41.5882 12.5487C42.331 12.9776 42.5856 13.9275 42.1567 14.6703C41.7279 15.4132 40.778 15.6677 40.0352 15.2388Z" stroke="white" stroke-width="1.40625" stroke-miterlimit="10" stroke-linecap="round" stroke-linejoin="round"/>
<path d="M39.4664 13.1174L36.7764 11.5642" stroke="white" stroke-width="1.40625" stroke-miterlimit="10" stroke-linecap="round" stroke-linejoin="round"/>
<path d="M31.7642 47.2968H40.3064C42.022 47.2968 43.4127 45.9061 43.4127 44.1906V26.5885C43.4127 25.9164 43.6306 25.2624 44.0339 24.7247L46.2083 21.8256C46.9762 20.8018 46.2456 19.3406 44.9658 19.3406H23.7124" stroke="white" stroke-width="1.40625" stroke-miterlimit="10" stroke-linecap="round" stroke-linejoin="round"/>
<path d="M31.1471 30.2124H28.8623" stroke="white" stroke-width="1.40625" stroke-miterlimit="10" stroke-linecap="round" stroke-linejoin="round"/>
<path d="M35.1567 44.1905H38.7536C39.6114 44.1905 40.3067 43.4952 40.3067 42.6374V30.9889C40.3067 30.56 39.959 30.2124 39.5302 30.2124H34.4287" stroke="white" stroke-width="1.40625" stroke-miterlimit="10" stroke-linecap="round" stroke-linejoin="round"/>
</svg>
