<svg width="18" height="19" viewBox="0 0 18 19" fill="none" xmlns="http://www.w3.org/2000/svg">
<path d="M11.2389 7.39626H6.7614C4.69141 7.39626 3.00391 9.08376 3.00391 11.1594C3.00391 13.2294 4.69141 14.9169 6.7614 14.9169H11.6214V16.25C11.6214 17.1781 12.3808 17.9375 13.3089 17.9375C14.2426 17.9375 14.9964 17.1781 14.9964 16.25V14.3544C14.9964 12.8075 13.7364 11.5419 12.1839 11.5419H6.7614C6.55328 11.5419 6.37891 11.3731 6.37891 11.1594C6.37891 10.9456 6.55328 10.7713 6.7614 10.7713H11.2389C13.3089 10.7713 14.9964 9.08376 14.9964 7.01373C14.9964 4.93814 13.3089 3.25064 11.2389 3.25064H6.37891V2.75C6.37891 1.82186 5.61951 1.0625 4.69141 1.0625C3.75764 1.0625 3.00391 1.82186 3.00391 2.75V3.81313C3.00391 5.3656 4.2639 6.62563 5.81641 6.62563H11.2389C11.447 6.62563 11.6214 6.80001 11.6214 7.01372C11.6214 7.22748 11.447 7.39626 11.2389 7.39626Z" fill="white"/>
</svg>
