<svg width="48" height="48" viewBox="0 0 48 48" fill="none" xmlns="http://www.w3.org/2000/svg">
<g clip-path="url(#clip0_594_11782)">
<path d="M20.2202 41.6606H19.8261C19.4873 40.308 19.1562 38.9739 18.8382 37.6236C18.2329 35.0534 17.6125 33.4132 14.1664 32.4356L10.8351 30.0428C10.2824 29.6459 9.60652 29.4866 8.93152 29.595L6.71283 24.3577C5.21058 20.8117 3.25796 21.2255 2.69537 21.4371C1.31012 21.9577 0.496929 23.793 0.989398 25.2877L3.81746 33.8715C3.84718 33.9618 3.87737 34.0542 3.90802 34.1485C4.36993 35.5663 4.9448 37.3308 6.26771 38.2401L10.1239 40.8903C10.4295 41.1003 10.646 41.3512 10.7899 41.6603H10.7049C10.7048 41.6603 10.7047 41.6603 10.7046 41.6603C10.2814 41.6603 9.88458 41.8242 9.58721 42.1219C9.28965 42.4196 9.12605 42.8167 9.12643 43.24L9.12868 45.5792C9.12952 46.4486 9.83752 47.156 10.7068 47.156L20.2224 47.1563C20.6458 47.1563 21.0427 46.9924 21.3402 46.6946C21.6376 46.397 21.8011 45.9998 21.8008 45.5765L21.7985 43.2375C21.7976 42.3679 21.0897 41.6606 20.2202 41.6606ZM10.8674 39.8084L7.01115 37.1582C6.0549 36.5009 5.55643 34.9711 5.15602 33.7418C5.1249 33.646 5.09434 33.5523 5.06415 33.4606L2.23609 24.8768C1.94162 23.9829 2.49643 22.9138 3.15727 22.6655C3.92077 22.3786 4.79827 23.2025 5.5044 24.8694L7.7304 30.1239C7.55021 30.2682 7.38877 30.438 7.25077 30.6301C6.42465 31.7803 6.68818 33.3882 7.8384 34.2145L12.3911 37.4848C12.6856 37.6962 13.0957 37.6289 13.307 37.3346C13.5184 37.0402 13.4512 36.6302 13.1568 36.4187L8.60415 33.1485C8.04174 32.7443 7.91283 31.9582 8.3169 31.3958C8.51133 31.125 8.80149 30.9459 9.13402 30.8914C9.46665 30.8373 9.7988 30.914 10.0696 31.1085L13.4954 33.5692C13.5586 33.6145 13.6295 33.6484 13.7045 33.6689C16.6262 34.4709 17.0172 35.616 17.5608 37.924C17.8557 39.176 18.1611 40.4117 18.4732 41.6602L12.1815 41.6598C11.9737 40.8883 11.5325 40.2654 10.8674 39.8084ZM20.4116 45.767C20.3766 45.802 20.3154 45.8438 20.2218 45.8438L10.7071 45.8431C10.5606 45.8431 10.4415 45.7239 10.4414 45.5776L10.4391 43.2384C10.439 43.1455 10.4807 43.0842 10.5157 43.0492C10.5508 43.0142 10.6119 42.9725 10.7049 42.9725L19.3107 42.9729C19.3116 42.9729 19.3126 42.9732 19.3135 42.9732C19.3148 42.9732 19.316 42.973 19.3173 42.9729L20.2203 42.973C20.3668 42.973 20.4859 43.0922 20.486 43.2386L20.4883 45.5776C20.4884 45.6707 20.4466 45.7319 20.4116 45.767ZM45.3046 21.4369C44.7421 21.2255 42.7896 20.8115 41.2872 24.3575L39.0685 29.5948C38.3929 29.4865 37.7176 29.6457 37.1649 30.0427L33.8336 32.4354C30.3873 33.4131 29.767 35.0532 29.1618 37.6234C28.8459 38.9649 28.514 40.3023 28.1739 41.6604H27.7798C26.9104 41.6604 26.2024 42.3678 26.2016 43.2372L26.1993 45.5764C26.199 45.9997 26.3626 46.3968 26.6599 46.6944C26.9574 46.9922 27.3543 47.1562 27.7783 47.1562L37.2931 47.1555C38.1624 47.1555 38.8704 46.4482 38.8712 45.5788L38.8735 43.2397C38.8739 42.8163 38.7103 42.4192 38.4127 42.1214C38.1153 41.8237 37.7185 41.6599 37.2954 41.6599C37.2953 41.6599 37.2951 41.6599 37.2951 41.6599H37.21C37.354 41.3508 37.5705 41.0998 37.876 40.8898L41.7321 38.2397C43.0549 37.3306 43.6297 35.5663 44.0916 34.1488C44.1224 34.0542 44.1525 33.9616 44.1825 33.871L47.0105 25.2872C47.5031 23.7928 46.6899 21.9576 45.3046 21.4369ZM37.2953 42.9726C37.3882 42.9726 37.4494 43.0143 37.4845 43.0493C37.5195 43.0843 37.5612 43.1455 37.5611 43.2385L37.5588 45.5778C37.5587 45.7241 37.4396 45.8432 37.2931 45.8432L27.7777 45.8438C27.6847 45.8438 27.6234 45.8021 27.5884 45.7671C27.5535 45.732 27.5117 45.6708 27.5118 45.5778L27.5141 43.2386C27.5142 43.0922 27.6333 42.9731 27.7798 42.9731L28.6828 42.973C28.6841 42.973 28.6853 42.9733 28.6866 42.9733C28.6876 42.9733 28.6885 42.9731 28.6894 42.973L37.2953 42.9726ZM45.764 24.8768L42.936 33.4606C42.9058 33.5524 42.8751 33.6465 42.8438 33.7425C42.4434 34.9715 41.945 36.5012 40.9889 37.1583L37.1327 39.8085C36.4677 40.2655 36.0264 40.8885 35.8188 41.6603L29.527 41.6606C29.8403 40.407 30.1463 39.1688 30.4394 37.9245C30.9828 35.6165 31.3738 34.4714 34.2957 33.6694C34.3708 33.6488 34.4416 33.615 34.5048 33.5696L37.9306 31.1089C38.2014 30.9145 38.5336 30.8377 38.8662 30.8918C39.1987 30.9464 39.4889 31.1255 39.6833 31.3961C40.0873 31.9586 39.9585 32.7449 39.3961 33.1489L34.8434 36.4192C34.549 36.6307 34.4819 37.0407 34.6932 37.3351C34.9048 37.6294 35.3147 37.6966 35.6091 37.4853L40.1618 34.2149C41.3119 33.3888 41.5755 31.7808 40.7494 30.6306C40.6113 30.4384 40.45 30.2687 40.2698 30.1244L42.4958 24.8699C43.202 23.2029 44.0797 22.3791 44.8429 22.6659C45.5037 22.9138 46.0585 23.983 45.764 24.8768ZM26.9117 28.267C32.0574 28.267 35.3337 25.8505 37.2597 23.6229C39.7096 20.7895 40.5183 17.7211 40.5515 17.5918C40.5955 17.4208 40.5688 17.2393 40.4773 17.0884C40.3857 16.9373 40.2373 16.8296 40.0653 16.7894C39.7866 16.7243 33.1849 15.2327 28.2524 18.6004C26.6696 19.681 25.4476 21.136 24.5945 22.9481L24.5946 18.1169C24.7532 17.8688 24.9179 17.6161 25.0908 17.3508C26.4869 15.2097 28.0691 12.783 28.2265 10.1074C28.4024 7.11703 26.8289 3.38381 24.3999 1.02881C24.1453 0.782156 23.7409 0.781969 23.4863 1.02881C20.9711 3.46706 19.4334 7.11984 19.6598 10.1181C19.8833 13.0761 21.9294 16.1078 23.1519 17.9191C23.1967 17.9856 23.2401 18.0498 23.2821 18.1122L23.282 22.6931C22.4362 20.999 21.2554 19.6298 19.7476 18.6003C14.8147 15.2323 8.21312 16.7241 7.93458 16.7893C7.76265 16.8295 7.61424 16.9373 7.52265 17.0883C7.43115 17.2392 7.40443 17.4207 7.4484 17.5917C7.48158 17.7209 8.29037 20.7893 10.7401 23.6228C12.6662 25.8505 15.9418 28.2669 21.0881 28.2669C21.7844 28.2669 22.5156 28.2223 23.2818 28.1273L23.2817 33.6816C23.2817 34.044 23.5756 34.3378 23.938 34.3378C24.3003 34.3378 24.5942 34.044 24.5942 33.6816L24.5943 28.1113C25.4058 28.2172 26.178 28.267 26.9117 28.267ZM28.9861 19.6888C32.5561 17.2472 37.2958 17.6703 39.0634 17.9408C38.7033 18.9481 37.8593 20.9228 36.2669 22.7647C33.5548 25.9014 29.9442 27.2857 25.5185 26.893L32.3232 22.9646C32.6371 22.7834 32.7446 22.3821 32.5634 22.0682C32.3821 21.7543 31.9808 21.6467 31.6669 21.828L25.0072 25.6727C25.7011 23.032 27.0347 21.0235 28.9861 19.6888ZM20.9688 10.0193C20.7839 7.57144 21.9645 4.60172 23.9421 2.44266C25.8553 4.55147 27.0605 7.58287 26.9165 10.0305C26.8004 12.0041 25.7181 13.9373 24.595 15.7013L24.5951 9.7095C24.5951 9.34706 24.3013 9.05325 23.9388 9.05325C23.5765 9.05325 23.2826 9.34706 23.2826 9.7095L23.2825 15.7307C22.2438 14.0852 21.1172 11.9845 20.9688 10.0193ZM11.7647 22.8009C10.1579 20.9557 9.30183 18.9557 8.93752 17.9396C10.7031 17.6676 15.4307 17.2423 19.0076 19.6845C20.9808 21.0319 22.3222 23.0679 23.0112 25.7481L16.2207 21.8273C15.9066 21.6459 15.5055 21.7538 15.3242 22.0675C15.143 22.3814 15.2506 22.7828 15.5644 22.964L22.3849 26.902C18.0215 27.2647 14.4539 25.8891 11.7647 22.8009Z" fill="white"/>
</g>
<defs>
<clipPath id="clip0_594_11782">
<rect width="48" height="48" fill="white"/>
</clipPath>
</defs>
</svg>
