<svg width="16" height="16" viewBox="0 0 16 16" fill="none" xmlns="http://www.w3.org/2000/svg">
<path d="M14 2.925C14 2.98 13.99 3.0375 13.97 3.09C13.875 3.335 13.52 4 12.5 4C12.5 4 11.75 4 11.75 4.5C11.75 5 12.75 6.5 12.75 8.25C12.75 8.25 12.75 9.75 11.75 10.5C10.75 11.25 11.25 14.75 11.25 14.75C11.25 14.75 12.25 14.75 12.25 15.25V15.5H10.5C10.5 15.5 9.75 14.75 9.75 13.25C9.75 12.2725 9.8575 11.72 9.93 11.4525C9.96 11.37 9.98 11.31 9.99 11.2775C9.975 11.3075 9.955 11.3625 9.93 11.4525C9.7375 11.985 9.1275 13.42 8.105 13.7025C8.185 13.4325 8.25 13.1075 8.25 12.75C8.25 11.25 7 11 7 11C7 11 8 11.5 8 12.5C8 13 7.875 13.4375 7.75 13.75C7.625 14.0625 7.5 14.25 7.5 14.25C7.5 14.25 7.75 14.75 8.5 14.75C9.25 14.75 9.25 15.25 9.25 15.25V15.5H5.25C4.25 15.5 3.25 15.25 3.25 13.75C3.25 12.25 3.25 11.5 4 10.5C4.75 9.5 5.75 9.75 7.25 7.75C8.2225 6.455 8.67 5.1575 8.865 4.405C8.945 4.4775 9.055 4.5 9.25 4.5C9.75 4.5 11.25 4.5 10.5 2.5C10.75 4 10 4.25 9.5 4.25C9.2025 4.25 9.0825 4.0725 8.98 3.8775C8.9125 3.7425 8.85 3.6 8.75 3.5C8.5 3.25 8.25 3.5 8.25 2.75C8.25 2 9.25 0.75 10.75 0.75C12.25 0.75 12.5 2 12.5 2C12.7975 2.2975 13.2725 2.4175 13.6075 2.4675C13.8325 2.5 14 2.695 14 2.925Z" fill="white"/>
<path d="M9.99023 11.2775V11.275C9.99523 11.2675 9.99774 11.2625 9.99774 11.2575C9.99774 11.2525 10.0002 11.25 10.0002 11.25" fill="white"/>
<path d="M2.74979 10.5C2.40479 11.5375 2.77479 12.095 3.03729 12.3425C2.99979 12.7525 2.99979 13.2075 2.99979 13.75C2.99979 13.8625 3.00479 13.97 3.01729 14.07C1.47979 12.8175 1.28479 10.9425 1.99979 9.74996C2.74979 8.49996 4.49979 8.24996 4.74979 8.49996C4.74979 8.49996 3.24979 8.99996 2.74979 10.5Z" fill="white"/>
</svg>
