<svg width="19" height="18" viewBox="0 0 19 18" fill="none" xmlns="http://www.w3.org/2000/svg">
<path d="M8.17969 12.1288C8.00218 12.1288 7.82626 12.1187 7.65234 12.0996V13.6687C7.20463 13.2483 6.60307 12.99 5.94196 12.99H3.69727V14.18C3.69727 15.5593 4.81938 16.6815 6.19867 16.6815H7.65234V17.9998H8.70703V16.6815H10.1607C11.54 16.6815 12.6621 15.5594 12.6621 14.1801V12.9901H10.4174C9.7563 12.9901 9.15471 13.2483 8.70703 13.6687V12.0996C8.53311 12.1187 8.35719 12.1288 8.17969 12.1288Z" fill="white"/>
<path d="M5.54297 0H6.59766V1.05469H5.54297V0Z" fill="white"/>
<path d="M3.43359 1.05469H4.48828V2.10938H3.43359V1.05469Z" fill="white"/>
<path d="M11.3438 1.05469H12.3984V2.10938H11.3438V1.05469Z" fill="white"/>
<path d="M13.4531 2.10938H14.5078V3.16406H13.4531V2.10938Z" fill="white"/>
<path d="M14.5078 0H15.5625V1.05469H14.5078V0Z" fill="white"/>
<path d="M6.77344 3.15847C7.29108 3.40759 7.76681 3.7401 8.17976 4.14454C8.5927 3.7401 9.06844 3.40759 9.58608 3.15847C8.89891 2.46625 8.17976 2.10498 8.17976 2.10498C8.17976 2.10498 7.4606 2.46625 6.77344 3.15847Z" fill="white"/>
<path d="M8.17969 11.0742C10.2184 11.0742 11.8711 9.42152 11.8711 7.38281V3.69141C10.2826 3.69141 8.8993 4.56957 8.17969 5.86677C7.46007 4.56957 6.07685 3.69141 4.48828 3.69141V7.38281C4.48828 9.42152 6.14098 11.0742 8.17969 11.0742Z" fill="white"/>
</svg>
