<svg width="16" height="16" viewBox="0 0 16 16" fill="none" xmlns="http://www.w3.org/2000/svg">
<path d="M8.65973 12.08C8.65973 12.395 8.70223 12.7 8.78473 12.99C8.53723 12.95 8.28473 12.9275 8.02973 12.9225H7.95473C7.26223 12.9375 6.57723 13.0825 5.93973 13.355C5.69973 13.4525 5.44973 13.5 5.19973 13.5C4.68723 13.5 4.18473 13.3 3.80723 12.9225H3.80473C3.03473 12.15 3.03473 10.9 3.80723 10.1275L5.63973 7.79503C5.78723 7.60753 5.95723 7.43753 6.14473 7.29003C7.44723 6.26503 9.33473 6.49253 10.3597 7.79503L11.1447 8.79253C9.71223 9.20003 8.65973 10.52 8.65973 12.08Z" fill="white"/>
<path d="M3.05329 7.60828C3.67602 7.32931 3.85993 6.38681 3.46407 5.50313C3.06821 4.61946 2.24247 4.12925 1.61974 4.40822C0.997011 4.68718 0.813098 5.62969 1.20896 6.51336C1.60482 7.39704 2.43056 7.88725 3.05329 7.60828Z" fill="white"/>
<path d="M14.802 6.51127C15.1978 5.6276 15.0139 4.68509 14.3912 4.40612C13.7684 4.12716 12.9427 4.61737 12.5469 5.50104C12.151 6.38472 12.3349 7.32722 12.9576 7.60619C13.5804 7.88516 14.4061 7.39495 14.802 6.51127Z" fill="white"/>
<path d="M6.13983 4.78898C6.86705 4.54836 7.17962 3.51629 6.83799 2.48378C6.49636 1.45126 5.62989 0.809304 4.90267 1.04992C4.17546 1.29054 3.86289 2.32261 4.20452 3.35513C4.54615 4.38764 5.41262 5.0296 6.13983 4.78898Z" fill="white"/>
<path d="M11.796 3.36193C12.1376 2.32941 11.8251 1.29734 11.0978 1.05672C10.3706 0.816106 9.50416 1.45807 9.16253 2.49058C8.82089 3.52309 9.13347 4.55517 9.86068 4.79578C10.5879 5.0364 11.4544 4.39444 11.796 3.36193Z" fill="white"/>
<path d="M12.0802 9.15991C10.4677 9.15991 9.16016 10.4674 9.16016 12.0799C9.16016 13.6924 10.4677 14.9999 12.0802 14.9999C13.6927 14.9999 15.0002 13.6924 15.0002 12.0799C15.0002 10.4674 13.6927 9.15991 12.0802 9.15991ZM12.0802 14.0399C11.8202 14.0399 11.6127 13.8299 11.6127 13.5724C11.6127 13.3149 11.8227 13.1049 12.0802 13.1049C12.3377 13.1049 12.5477 13.3149 12.5477 13.5724C12.5477 13.8299 12.3377 14.0399 12.0802 14.0399ZM12.5502 11.9999C12.5502 12.2599 12.3402 12.4674 12.0827 12.4674C11.8252 12.4674 11.6152 12.2574 11.6152 11.9999V10.5799C11.6152 10.3199 11.8252 10.1124 12.0827 10.1124C12.3402 10.1124 12.5502 10.3224 12.5502 10.5799V11.9999Z" fill="white"/>
</svg>
