<svg width="38" height="33" viewBox="0 0 38 33" fill="none" xmlns="http://www.w3.org/2000/svg">
<mask id="mask0_389_1410" style="mask-type:luminance" maskUnits="userSpaceOnUse" x="2" y="0" width="34" height="33">
<path d="M14.206 32.7875L35.9334 19.217L23.7554 0.298273L2.02801 13.8688L14.206 32.7875Z" fill="white"/>
</mask>
<g mask="url(#mask0_389_1410)">
<path d="M15.0043 16.3176C13.4522 17.6215 11.2616 17.0044 9.65421 15.5923C7.93528 14.0802 7.6317 12.1999 8.80435 10.3397C10.2952 7.97285 12.6469 9.4132 14.1867 11.0613C15.5253 12.5456 16.6355 14.9467 15.0043 16.3176Z" fill="white"/>
<path d="M20.844 12.6113C22.7029 11.7842 23.0717 9.56836 22.4616 7.53317C21.8066 5.3565 20.2098 4.28402 18.002 4.53565C15.1932 4.85468 15.5128 7.56518 16.3696 9.63996C17.1588 11.4667 18.8896 13.4802 20.844 12.6113Z" fill="white"/>
<path d="M13.7936 24.3421C12.8131 25.7686 10.9522 25.7113 9.39846 24.8585C7.73805 23.9459 7.13373 22.4255 7.70435 20.6094C8.42795 18.3015 10.5778 19.0184 12.1212 20.0837C13.4763 21.0535 14.8237 22.8428 13.7936 24.3421Z" fill="white"/>
<path d="M28.1041 15.1626C29.8527 14.9876 30.6772 13.3544 30.6384 11.6139C30.5958 9.75275 29.5084 8.51445 27.6012 8.15264C25.1752 7.69212 24.8128 9.88433 25.0474 11.7172C25.2865 13.3432 26.266 15.3466 28.1041 15.1626Z" fill="white"/>
<path d="M16.068 25.1888C15.249 23.354 15.0478 21.3528 15.4998 19.5385C15.9519 17.7241 17.0282 16.2132 18.5387 15.2726C19.944 14.4083 21.6813 14.183 23.3926 14.643C25.5741 15.2468 27.2639 16.9635 28.5148 18.8073C29.3691 20.0663 30.1424 21.7332 29.148 23.0309C28.2853 24.1563 26.5802 24.554 25.333 25.1008C24.4457 25.4811 23.6382 26.012 22.9397 26.6741C22.1095 27.4556 21.2745 28.3844 20.1179 28.6695C18.2827 29.1205 16.6964 26.9047 16.1373 25.2926C16.1086 25.262 16.0856 25.2263 16.0698 25.1876" fill="white"/>
</g>
</svg>
