<svg width="130" height="156" viewBox="0 0 130 156" fill="none" xmlns="http://www.w3.org/2000/svg">
<g clip-path="url(#clip0_389_2580)">
<path d="M46.8873 129.225C46.8873 125.515 46.9691 122.092 46.8546 118.677C46.7933 116.918 47.3656 116.155 49.1807 116.385C49.8511 116.469 50.5461 116.469 51.2206 116.421C52.3816 116.34 52.7864 116.857 52.7864 117.963C52.7823 127.852 52.7945 137.746 52.8313 147.635C52.8354 148.866 52.3203 149.237 51.1184 149.278C46.9405 149.419 46.9364 149.459 46.9241 145.407C46.9159 142.448 46.875 139.485 46.9364 136.527C46.965 135.182 46.5725 134.597 45.0845 134.634C42.0184 134.71 38.9483 134.682 35.8823 134.553C34.3084 134.484 33.9159 135.057 33.9568 136.531C34.0508 140.159 33.9486 143.796 34.0018 147.429C34.0222 148.741 33.5521 149.213 32.2112 149.149C27.6326 148.935 28.3071 149.637 28.2744 145.257C28.2131 136.309 28.2376 127.36 28.1191 118.415C28.0986 116.704 28.6301 116.223 30.3225 116.28C34.2552 116.417 33.9813 115.953 33.9527 119.888C33.9364 122.512 33.8955 125.14 34.014 127.759C34.0386 128.264 34.7294 129.152 35.1342 129.16C38.936 129.269 42.742 129.225 46.8873 129.225Z" fill="black"/>
<path d="M87.3915 71.2098C83.3239 71.2098 79.2522 71.2704 75.1887 71.1251C74.7309 71.1089 73.9909 69.9787 73.9296 69.3127C73.5617 65.2964 73.3041 61.268 73.1242 57.2356C73.0588 55.7623 72.695 55.064 70.9985 55.1286C67.5277 55.2577 64.0447 55.2376 60.5698 55.1447C58.9714 55.1003 58.3705 55.6493 58.4277 57.2154C58.4727 58.4869 58.3991 59.7867 58.1661 61.0339C57.5365 64.4286 58.4359 67.2178 61.1912 69.4096C61.6246 69.7527 61.9066 70.2855 62.4422 70.9676C61.6736 71.117 61.2403 71.2744 60.8029 71.2744C57.3934 71.2784 53.984 71.2219 50.5786 71.2502C49.1805 71.2623 48.4937 70.8465 48.4079 69.3127C47.9664 61.595 47.3981 53.8813 46.9566 46.1636C46.8871 44.9244 46.5642 44.2745 45.2928 43.8426C40.8573 42.329 38.1796 39.1644 37.4315 34.6355C36.6547 29.9249 38.7151 26.2639 42.4557 23.4585C44.4098 21.9933 44.7818 22.1184 45.8978 24.2941C46.1145 24.7139 46.3025 25.1538 46.5724 25.5373C47.6271 27.051 47.8764 28.2175 45.906 29.4083C44.0991 30.5021 43.7925 32.4881 44.3158 34.4538C44.8595 36.4882 46.4415 37.7153 48.7022 37.7436C56.2651 37.8324 63.828 37.8687 71.3909 37.796C72.0082 37.792 72.8871 36.9282 73.1856 36.2662C75.5689 30.9906 77.8419 25.6665 80.1516 20.3585C80.54 19.4665 80.961 18.5865 81.5661 17.2666C83.3035 20.2859 84.7302 22.9338 86.3327 25.4727C86.8683 26.3204 87.739 27.1115 88.6466 27.5555C90.8991 28.6575 93.2415 29.6061 95.5922 30.4981C96.8063 30.9583 97.1661 31.5153 96.6551 32.7585C95.9642 34.4377 95.5431 36.2258 94.7909 37.8727C94.5088 38.4903 93.6258 38.8455 93.0044 39.2976C92.9145 39.3622 92.7387 39.3057 92.6038 39.3097C87.4529 39.4146 87.4937 39.4227 86.2755 44.3109C84.7098 50.5956 83.5161 56.9167 83.373 63.4195C83.3362 65.0179 83.606 66.2329 84.7588 67.355C85.8013 68.3722 86.6802 69.5468 87.6327 70.6488C87.5469 70.8344 87.4651 71.0242 87.3793 71.2098H87.3915ZM43.8824 24.2416C40.0887 26.7523 38.4003 30.1631 39.0299 34.4781C39.6349 38.6235 42.0387 41.5661 46.2167 42.6156C47.9092 43.0394 48.2893 43.7458 48.3752 45.2998C48.7963 52.8197 49.3277 60.3356 49.8632 67.8475C49.9041 68.4328 50.272 69.4863 50.5255 69.4943C53.3749 69.6114 56.2283 69.571 59.184 69.571C58.117 68.13 56.5554 66.9837 56.5145 65.7889C56.3673 61.8574 56.772 57.9057 56.9764 53.7764C62.528 53.7764 67.8343 53.74 73.1365 53.845C73.5658 53.8531 74.2934 54.8218 74.3425 55.391C74.7104 59.6131 74.9107 63.8473 75.2459 68.0695C75.2868 68.6063 75.761 69.5508 76.0676 69.563C78.868 69.68 81.6805 69.6316 84.9224 69.6316C84.3051 68.9413 84.0884 68.5982 83.7859 68.3762C82.0975 67.1249 81.8032 65.5103 81.8195 63.4598C81.8686 56.5252 83.3239 49.8529 85.1758 43.2291C85.6459 41.554 85.5356 39.1805 86.6353 38.3611C87.8371 37.4691 90.1305 38.014 91.9497 37.9333C92.1541 37.9252 92.4035 38.0019 92.5547 37.909C92.9717 37.6507 93.5645 37.4045 93.7076 37.017C94.3085 35.3903 94.7664 33.7111 95.3469 31.8382C92.9554 30.8695 90.711 29.933 88.4422 29.0571C86.9378 28.4758 85.7686 27.6847 85.0287 26.1347C84.1497 24.2941 82.9437 22.6028 81.6928 20.5361C81.1164 21.8157 80.7076 22.7199 80.307 23.6281C78.1893 28.4355 76.1003 33.255 73.9255 38.0382C73.6761 38.5872 72.9566 39.3057 72.4456 39.3097C64.4739 39.3783 56.4981 39.4389 48.5264 39.2774C45.906 39.2249 43.9069 37.687 42.9217 35.2006C42.0305 32.9402 42.472 30.7968 44.0419 28.9643C45.8406 26.8572 45.8856 26.8936 43.8865 24.2376L43.8824 24.2416Z" fill="black"/>
<path d="M69.4287 134.323V131.646C68.7583 131.594 68.1696 131.513 67.585 131.509C64.519 131.493 61.4488 131.497 58.3828 131.493C54.4215 131.493 54.4624 131.493 54.6463 127.662C54.6995 126.548 55.0715 126.092 56.208 126.096C62.1397 126.133 68.0715 126.145 74.0032 126.124C75.0784 126.124 75.4218 126.54 75.4218 127.565C75.4218 134.226 75.4463 140.886 75.4995 147.546C75.5117 148.846 74.9803 149.419 73.6639 149.253C72.229 149.072 70.7941 148.817 69.3551 148.745C68.7991 148.717 68.2227 149.1 67.6545 149.286C63.5746 150.622 59.413 149.136 57.3853 145.625C55.4271 142.238 56.2775 137.463 59.413 135.009C61.7186 133.2 64.429 133.116 67.1966 133.701C67.908 133.85 68.6029 134.084 69.4369 134.314L69.4287 134.323ZM66.1051 144.309C68.3985 144.369 69.9193 143.191 69.9275 141.346C69.9356 139.675 68.513 138.44 66.5098 138.371C64.0488 138.286 62.3605 139.437 62.3278 141.221C62.2951 142.989 63.8363 144.248 66.1051 144.309Z" fill="black"/>
<path d="M91.4423 140.03C91.4423 137.677 91.3564 135.324 91.475 132.979C91.5486 131.493 91.1152 130.964 89.5495 131.009C86.7083 131.094 85.6291 129.608 86.6347 126.976C86.8105 126.516 87.9061 126.21 88.597 126.169C91.4096 126.016 91.4137 126.064 91.4218 123.279C91.43 121.531 91.4873 119.783 91.4218 118.04C91.3769 116.865 91.9206 116.494 92.9957 116.49C96.9448 116.482 100.894 116.502 104.839 116.413C106.486 116.377 106.4 117.422 106.274 118.423C106.147 119.436 107.042 121.047 104.863 121.051C102.823 121.051 100.779 121.099 98.7395 121.192C96.2866 121.305 97.4027 123.202 97.1942 124.393C96.9775 125.628 97.5212 126.294 98.9071 126.161C99.7165 126.08 100.538 126.137 101.356 126.137C104.168 126.133 105.166 127.465 104.238 130.085C104.119 130.424 103.625 130.726 103.24 130.855C102.807 130.997 102.3 130.928 101.822 130.936C98.7149 130.987 97.1656 132.519 97.1737 135.53C97.1819 139.425 97.1329 143.324 97.2105 147.219C97.2391 148.701 96.7445 149.233 95.2156 149.205C90.5797 149.12 91.52 149.617 91.4382 145.48C91.4014 143.667 91.4341 141.851 91.4341 140.038H91.4464L91.4423 140.03Z" fill="black"/>
<path d="M19.994 110.977C15.6648 111.663 15.1987 111.437 13.4899 108.034C8.53522 98.1729 15.7711 85.45 26.8538 84.5338C34.3186 83.9162 42.2657 90.4351 43.2755 97.9509C43.8846 102.496 42.8094 106.633 40.2912 110.42C38.9217 112.474 36.8736 111.13 34.6987 111.683C35.173 110.726 35.3937 110.274 35.6226 109.826C38.6601 103.832 38.9544 97.7733 35.4918 91.9164C31.8371 85.7285 23.1909 85.7528 19.4994 91.9124C16.1717 97.4706 16.1349 103.247 19.0129 109.039C19.3031 109.624 19.6016 110.202 19.9981 110.981L19.994 110.977Z" fill="black"/>
<path d="M68.3248 98.6248C70.8472 96.2554 73.4145 95.0969 76.5418 95.7468C79.2686 96.316 81.4434 98.6934 81.5374 101.41C81.6396 104.296 81.4802 107.194 81.5865 110.08C81.6601 112.119 80.2374 111.473 79.2154 111.541C78.1198 111.614 76.9915 111.788 77.0814 110.024C77.1918 107.808 77.1182 105.584 77.0937 103.364C77.0651 100.748 75.9409 99.307 73.766 99.0406C71.2846 98.7338 68.9626 100.147 68.6151 102.568C68.284 104.881 68.2676 107.263 68.3862 109.604C68.472 111.267 67.9201 111.755 66.3258 111.642C64.9359 111.541 63.6481 111.792 63.6808 109.636C63.7871 102.71 63.6931 95.7791 63.7299 88.8485C63.738 87.3389 63.6318 86.1441 61.6286 86.2006C61.3343 86.2087 61.0195 85.5669 60.7129 85.2238C61.0849 84.9452 61.4528 84.4326 61.8371 84.4205C64.7682 84.3438 67.6994 84.3317 70.6264 84.3882C71.0189 84.3963 71.3991 84.9089 71.7874 85.1874C71.395 85.5346 70.9821 86.1966 70.6141 86.1723C68.5415 86.0391 68.2676 87.1895 68.3003 88.8364C68.3657 91.9647 68.3208 95.0969 68.3208 98.6167L68.3248 98.6248Z" fill="black"/>
<path d="M79.0602 132.813C79.0602 127.97 79.1133 123.122 79.0275 118.278C79.003 116.805 79.5508 116.43 80.9325 116.454C85.4825 116.534 84.9184 115.998 84.9347 120.268C84.9674 129.015 84.9593 137.766 84.9593 146.517C84.9593 149.222 84.947 149.222 82.2898 149.23C81.8809 149.23 81.464 149.189 81.0633 149.242C79.563 149.448 79.0438 148.903 79.0765 147.349C79.1747 142.505 79.1133 137.657 79.1133 132.813C79.097 132.813 79.0765 132.813 79.0602 132.813Z" fill="black"/>
<path d="M91.7328 111.465C90.1998 111.465 88.7976 111.538 87.4199 111.417C87.0275 111.38 86.4837 110.84 86.3488 110.424C85.0488 106.327 85.8215 102.476 88.5114 99.2227C90.9438 96.276 94.3001 95.0207 98.2042 95.7513C101.765 96.4173 104.43 99.5981 104.627 103.154C104.696 104.442 104.14 104.777 102.95 104.769C99.541 104.757 96.1356 104.825 92.7262 104.854C90.5268 104.87 90.208 105.185 90.6209 107.336C90.8702 108.636 91.3036 109.899 91.7328 111.465ZM90.8907 102.557C93.462 102.557 95.8208 102.573 98.1837 102.553C100.097 102.537 100.849 101.39 99.7004 99.8846C99.0014 98.9684 97.7422 98.1449 96.6098 97.9391C93.8054 97.4305 91.8595 99.0572 90.8907 102.557Z" fill="black"/>
<path d="M48.167 99.3276C46.818 98.71 45.8654 98.27 44.9088 97.8341C45.6283 97.1519 46.5359 96.5747 47.0142 95.7553C47.6233 94.7099 48.1875 93.4747 48.2283 92.3042C48.2978 90.29 49.6265 90.734 50.7793 90.6654C52.0425 90.5887 52.7702 90.8631 52.7702 92.4212C52.7661 95.832 52.8601 95.832 56.2327 95.8522C56.6416 95.8522 57.0504 95.8643 57.4551 95.8684C58.5384 95.8885 59.7117 95.6746 59.679 97.3901C59.6504 99.0289 58.5016 98.7141 57.5246 98.7342C56.6416 98.7504 55.7463 98.823 54.8755 98.71C53.1054 98.484 52.6721 99.2751 52.7293 100.886C52.8315 103.836 52.6557 106.795 52.7988 109.742C52.8887 111.639 51.7768 111.574 50.4768 111.574C49.1809 111.574 48.0689 111.643 48.1343 109.754C48.2529 106.206 48.167 102.654 48.167 99.3236V99.3276Z" fill="black"/>
<path d="M113.403 98.8624C114.878 97.8129 116.203 96.6544 117.724 95.8794C118.521 95.4758 119.743 95.5081 120.647 95.7664C122.204 96.2104 122.756 97.5263 122.204 98.9794C121.66 100.424 120.356 100.558 118.95 100.267C117.765 100.021 115.925 99.3023 115.492 99.7786C114.449 100.925 113.82 102.6 113.484 104.158C113.153 105.704 113.288 107.379 113.399 108.982C113.509 110.572 113.063 111.218 111.293 111.278C109.302 111.347 109.261 110.322 109.286 108.909C109.339 106.084 109.286 103.258 109.347 100.437C109.384 98.8704 109.225 97.5909 107.201 97.4738C106.911 97.4577 106.653 96.8764 106.383 96.5575C106.747 96.3315 107.087 95.9682 107.475 95.9117C108.211 95.8068 108.971 95.8673 109.719 95.8754C111.867 95.8942 113.093 96.8912 113.399 98.8664L113.403 98.8624Z" fill="black"/>
<path d="M110.804 119.671C110.792 117.746 112.08 116.155 113.686 116.115C115.321 116.075 116.638 117.621 116.634 119.574C116.634 121.625 115.301 123.256 113.629 123.26C112.059 123.264 110.82 121.685 110.804 119.667V119.671ZM111.532 119.28C111.507 121.346 112.325 122.452 113.649 122.468C115.064 122.485 116 121.318 115.984 119.55C115.971 118.101 115.334 116.983 113.813 116.922C112.092 116.854 111.577 118.113 111.532 119.28Z" fill="black"/>
<path d="M43.8799 24.241C45.8789 26.897 45.8339 26.8606 44.0352 28.9677C42.4695 30.8002 42.0239 32.9436 42.9151 35.204C43.8962 37.6905 45.8994 39.2284 48.5198 39.2808C56.4915 39.4382 64.4673 39.3817 72.439 39.3131C72.9459 39.3091 73.6654 38.5906 73.9188 38.0416C76.0937 33.2584 78.1827 28.4389 80.3003 23.6315C80.7009 22.7233 81.1097 21.8231 81.6861 20.5396C82.9371 22.6062 84.1431 24.2975 85.022 26.1381C85.7619 27.6841 86.9311 28.4793 88.4355 29.0605C90.7044 29.9324 92.9446 30.8729 95.3402 31.8416C94.7638 33.7146 94.3019 35.3937 93.7009 37.0204C93.5578 37.4079 92.9692 37.6541 92.5481 37.9125C92.4009 38.0053 92.1475 37.9286 91.9431 37.9367C90.1239 38.0174 87.8305 37.4725 86.6286 38.3645C85.5289 39.1799 85.6393 41.5574 85.1692 43.2325C83.3173 49.8563 81.8619 56.5246 81.8129 63.4633C81.7965 65.5138 82.0909 67.1324 83.7792 68.3797C84.0817 68.6057 84.2984 68.9448 84.9157 69.635C81.6739 69.635 78.8654 69.6834 76.061 69.5664C75.7544 69.5543 75.2843 68.6097 75.2393 68.0729C74.9082 63.8507 74.7038 59.6165 74.3358 55.3944C74.2868 54.8252 73.5591 53.8565 73.1299 53.8484C67.8277 53.7435 62.5214 53.7798 56.9698 53.7798C56.7695 57.9131 56.3648 61.8608 56.5078 65.7923C56.5528 66.9911 58.1104 68.1334 59.1773 69.5744C56.2217 69.5744 53.3682 69.6189 50.5188 69.4978C50.2654 69.4856 49.9016 68.4362 49.8566 67.8509C49.321 60.339 48.7896 52.8231 48.3685 45.3032C48.2827 43.7532 47.9025 43.0468 46.21 42.619C42.0321 41.5695 39.6324 38.6229 39.0233 34.4815C38.3896 30.1665 40.0821 26.7557 43.8758 24.245L43.8799 24.241Z" fill="#DEED6E"/>
<path d="M66.1053 144.309C63.8365 144.249 62.2953 142.989 62.328 141.221C62.3607 139.437 64.045 138.287 66.5101 138.372C68.5173 138.44 69.9359 139.675 69.9277 141.346C69.9195 143.191 68.3987 144.37 66.1053 144.309Z" fill="white"/>
<path d="M90.8887 102.556C91.8535 99.0567 93.7994 97.426 96.6079 97.9386C97.7402 98.1445 98.9994 98.9679 99.6984 99.8842C100.851 101.39 100.099 102.536 98.1818 102.552C95.8229 102.572 93.4601 102.556 90.8887 102.556Z" fill="white"/>
<path d="M111.53 119.28C111.575 118.113 112.091 116.854 113.812 116.923C115.332 116.983 115.97 118.097 115.982 119.55C115.999 121.318 115.063 122.489 113.648 122.469C112.324 122.453 111.506 121.347 111.53 119.28ZM112.095 120.995H114.515C113.317 120.269 116.771 117.75 113.395 117.863C112.929 117.879 112.532 119.893 112.095 120.995Z" fill="white"/>
<path d="M112.093 120.995C112.526 119.893 112.927 117.879 113.393 117.863C116.77 117.75 113.315 120.268 114.513 120.995H112.093Z" fill="black"/>
</g>
<defs>
<clipPath id="clip0_389_2580">
<rect width="130" height="155" fill="white" transform="translate(0 0.542969)"/>
</clipPath>
</defs>
</svg>
