<svg width="26" height="24" viewBox="0 0 26 24" fill="none" xmlns="http://www.w3.org/2000/svg">
<path d="M12.1359 0.526556C12.5216 -0.135711 13.4784 -0.13571 13.8641 0.526557L17.3042 6.43275C17.4455 6.67535 17.6822 6.84738 17.9566 6.9068L24.6368 8.35336C25.3858 8.51557 25.6815 9.4255 25.1708 9.997L20.6167 15.0938C20.4297 15.3032 20.3392 15.5815 20.3675 15.8608L21.056 22.661C21.1332 23.4236 20.3592 23.9859 19.6579 23.6769L13.4032 20.9207C13.1463 20.8075 12.8537 20.8075 12.5968 20.9207L6.34212 23.6769C5.64078 23.9859 4.86675 23.4236 4.94396 22.661L5.63247 15.8608C5.66076 15.5815 5.57032 15.3032 5.38325 15.0938L0.829159 9.997C0.318505 9.4255 0.614158 8.51557 1.36321 8.35336L8.04337 6.9068C8.31776 6.84738 8.55454 6.67535 8.69584 6.43275L12.1359 0.526556Z" fill="#0F4A12"/>
</svg>
