<svg width="159" height="36" viewBox="0 0 159 36" fill="none" xmlns="http://www.w3.org/2000/svg">
<g clip-path="url(#clip0_435_9503)">
<mask id="mask0_435_9503" style="mask-type:luminance" maskUnits="userSpaceOnUse" x="0" y="0" width="159" height="37">
<path d="M158.136 0.000366211H0.872559V36.0004H158.136V0.000366211Z" fill="white"/>
</mask>
<g mask="url(#mask0_435_9503)">
<path d="M84.2217 29.2362H86.8364C88.5322 29.2362 88.8543 30.3304 88.8543 31.0741C88.8543 31.8036 88.5322 32.9025 86.8364 32.8931H85.259V35.1667H84.2217V29.2362ZM85.259 32.0452H86.7796C87.2438 32.0452 87.8169 31.8131 87.8169 31.0646C87.8169 30.2831 87.3433 30.0841 86.7938 30.0841H85.259V32.0452ZM91.4217 29.2362H94.2543C95.5475 29.2362 96.2154 29.8331 96.2154 30.8373C96.2154 31.9741 95.4243 32.2678 95.2348 32.3341V32.3531C95.5901 32.4052 96.1159 32.6704 96.1159 33.6083C96.1159 34.2999 96.2154 34.9299 96.438 35.1715H95.3248C95.1685 34.9157 95.1685 34.5889 95.1685 34.2999C95.1685 33.2104 94.9459 32.732 93.989 32.732H92.459V35.1715H91.4217V29.2362ZM92.4638 31.9362H94.1643C94.8227 31.9362 95.178 31.6141 95.178 30.9889C95.178 30.231 94.6901 30.0841 94.1501 30.0841H92.4638V31.9362ZM104.296 32.2015C104.296 33.8973 103.235 35.3089 101.454 35.3089C99.6733 35.3089 98.6122 33.8973 98.6122 32.2015C98.6122 30.5057 99.6733 29.0941 101.454 29.0941C103.235 29.0941 104.296 30.5057 104.296 32.2015ZM99.6543 32.2015C99.6543 33.3383 100.185 34.461 101.454 34.461C102.724 34.461 103.254 33.3383 103.254 32.2015C103.254 31.0646 102.724 29.942 101.454 29.942C100.185 29.942 99.6543 31.0646 99.6543 32.2015ZM110.9 31.1215C110.724 30.4394 110.284 29.942 109.422 29.942C108.152 29.942 107.622 31.0646 107.622 32.2015C107.622 33.3383 108.152 34.461 109.422 34.461C110.345 34.461 110.852 33.7694 110.933 32.9073H111.946C111.861 34.3283 110.857 35.3089 109.422 35.3089C107.645 35.3089 106.58 33.8973 106.58 32.2015C106.58 30.5057 107.641 29.0941 109.422 29.0941C110.757 29.1036 111.814 29.8425 111.937 31.1215H110.9ZM114.556 29.2362H118.824V30.1315H115.594V31.6852H118.583V32.5331H115.594V34.2667H118.881V35.162H114.556V29.2362ZM122.131 33.1915C122.131 34.1057 122.803 34.461 123.632 34.461C124.546 34.461 124.887 34.011 124.887 33.5657C124.887 33.111 124.636 32.9262 124.4 32.8362C123.983 32.6799 123.443 32.571 122.633 32.3483C121.619 32.0736 121.321 31.4578 121.321 30.8468C121.321 29.6578 122.415 29.1036 123.49 29.1036C124.726 29.1036 125.764 29.762 125.764 30.9983H124.726C124.679 30.2357 124.163 29.9515 123.447 29.9515C122.964 29.9515 122.358 30.1267 122.358 30.7236C122.358 31.1404 122.642 31.3725 123.064 31.4862C123.154 31.5099 124.466 31.851 124.774 31.941C125.555 32.1731 125.93 32.8362 125.93 33.452C125.93 34.7783 124.75 35.3136 123.571 35.3136C122.216 35.3136 121.122 34.6646 121.098 33.1962H122.131V33.1915ZM129.165 33.1915C129.165 34.1057 129.837 34.461 130.666 34.461C131.581 34.461 131.922 34.011 131.922 33.5657C131.922 33.111 131.671 32.9262 131.434 32.8362C131.017 32.6799 130.477 32.571 129.667 32.3483C128.653 32.0736 128.355 31.4578 128.355 30.8468C128.355 29.6578 129.449 29.1036 130.524 29.1036C131.761 29.1036 132.798 29.762 132.798 30.9983H131.761C131.709 30.2357 131.197 29.9515 130.482 29.9515C129.999 29.9515 129.392 30.1267 129.392 30.7236C129.392 31.1404 129.676 31.3725 130.098 31.4862C130.188 31.5099 131.5 31.851 131.808 31.941C132.59 32.1731 132.964 32.8362 132.964 33.452C132.964 34.7783 131.784 35.3136 130.605 35.3136C129.25 35.3136 128.156 34.6646 128.132 33.1962H129.165V33.1915ZM135.517 29.2362H136.554V35.1667H135.517V29.2362ZM139.439 29.2362H140.533L143.243 33.6036H143.262V29.2362H144.252V35.1667H143.157L140.457 30.8089H140.434V35.1667H139.444V29.2362H139.439ZM152.309 35.1667H151.646L151.49 34.4704C150.935 35.1004 150.429 35.3089 149.704 35.3089C147.927 35.3089 146.862 33.8973 146.862 32.2015C146.862 30.5057 147.923 29.0941 149.704 29.0941C150.997 29.0941 152.086 29.7857 152.243 31.1215H151.229C151.13 30.3399 150.447 29.942 149.699 29.942C148.43 29.942 147.899 31.0646 147.899 32.2015C147.899 33.3383 148.43 34.461 149.699 34.461C150.76 34.4799 151.343 33.8404 151.362 32.8315H149.784V32.0404H152.309V35.1667Z" fill="white"/>
<path d="M84.3457 9.20882H80.6226V6.90672H84.3457V4.70884C84.3457 1.88568 86.0178 0.421997 89.8831 0.421997H92.7962V2.93252H90.9347C89.2152 2.93252 88.3578 3.42042 88.3578 4.70884V6.90672H92.7489V9.20882H88.3578V25.5983H84.3457V9.20882ZM102.725 6.41882C110.124 6.41882 111.938 10.9851 111.938 16.2525C111.938 21.5151 110.076 26.0862 102.725 26.0862C95.3257 26.0862 93.5115 21.5199 93.5115 16.2525C93.5068 10.9851 95.3731 6.41882 102.725 6.41882ZM107.736 16.2525C107.736 12.2072 106.926 8.72093 102.63 8.72093C98.5705 8.72093 97.7131 12.2072 97.7131 16.2525C97.7131 20.2978 98.5231 23.7841 102.63 23.7841C106.874 23.7793 107.736 20.293 107.736 16.2525ZM123.107 6.41882C130.506 6.41882 132.32 10.9851 132.32 16.2525C132.32 21.5151 130.459 26.0862 123.107 26.0862C115.708 26.0862 113.894 21.5199 113.894 16.2525C113.894 10.9851 115.756 6.41882 123.107 6.41882ZM128.119 16.2525C128.119 12.2072 127.309 8.72093 123.013 8.72093C118.953 8.72093 118.096 12.2072 118.096 16.2525C118.096 20.2978 118.906 23.7841 123.013 23.7841C127.262 23.7793 128.119 20.293 128.119 16.2525ZM152.419 25.5936H148.601V23.2915H148.506C147.98 24.6841 145.735 26.0815 142.969 26.0815C136.906 26.0815 134.613 22.1404 134.613 16.2478C134.613 12.3446 135.47 6.41409 142.68 6.41409C144.973 6.41409 147.407 7.42303 148.312 9.02882H148.407V0.701472H152.419V25.5936ZM143.49 23.5709C147.928 23.5709 148.644 20.5015 148.644 16.2478C148.644 12.6193 147.786 8.92461 143.49 8.92461C139.767 8.92461 138.81 11.7857 138.81 16.2478C138.81 20.7099 139.767 23.5709 143.49 23.5709Z" fill="white"/>
<path d="M1.11865 0.49292H14.6944C21.6055 0.49292 24.7176 5.11606 24.7176 11.1982C24.7176 18.3034 20.6771 21.9982 13.3302 21.9982H10.166V35.2329H1.11865V0.49292ZM10.1707 15.4803H11.876C14.1639 15.4803 15.3813 14.1682 15.3813 11.2455C15.3813 8.37501 14.1639 7.0108 11.876 7.0108H10.1707V15.4803ZM28.5592 0.49292H49.141V7.88711H37.6113V13.8224H48.4115V20.9276H37.6113V27.8387H49.5815V35.2329H28.5592V0.49292ZM60.3341 8.1808H53.5226V0.49292H76.1978V8.1808H69.3862V35.2329H60.3341V8.1808Z" fill="white"/>
<path d="M156.152 31.666C155.75 31.666 155.406 31.8094 155.121 32.0962C154.837 32.3814 154.695 32.7261 154.695 33.1301C154.695 33.5371 154.836 33.8841 155.118 34.1709C155.402 34.4577 155.746 34.6011 156.152 34.6011C156.558 34.6011 156.902 34.4577 157.186 34.1709C157.47 33.8841 157.612 33.5371 157.612 33.1301C157.612 32.7261 157.47 32.3814 157.186 32.0962C156.901 31.8094 156.556 31.666 156.152 31.666ZM157.852 33.1301C157.852 33.6004 157.686 34.002 157.355 34.3351C157.024 34.6682 156.622 34.8347 156.152 34.8347C155.682 34.8347 155.282 34.6682 154.952 34.3351C154.623 34.0036 154.459 33.6019 154.459 33.1301C154.459 32.6629 154.625 32.2635 154.956 31.932C155.287 31.602 155.685 31.437 156.152 31.437C156.622 31.437 157.024 31.602 157.355 31.932C157.686 32.2619 157.852 32.6613 157.852 33.1301ZM156.596 32.76C156.596 32.6243 156.555 32.5334 156.471 32.4871C156.39 32.4408 156.258 32.4177 156.076 32.4177H155.796V33.0931H156.092C156.231 33.0931 156.335 33.0792 156.404 33.0514C156.532 33.0005 156.596 32.9034 156.596 32.76ZM156.12 32.1933C156.351 32.1933 156.52 32.2157 156.628 32.2604C156.821 32.3406 156.918 32.4979 156.918 32.7323C156.918 32.8988 156.857 33.0213 156.735 33.1C156.67 33.1416 156.58 33.1717 156.465 33.1902C156.611 33.2133 156.718 33.2742 156.786 33.3729C156.854 33.4716 156.888 33.568 156.888 33.662V33.7985C156.888 33.8417 156.889 33.8879 156.892 33.9373C156.895 33.9866 156.901 34.019 156.908 34.0344L156.92 34.0575H156.612C156.611 34.0514 156.61 34.0452 156.608 34.0391C156.606 34.0329 156.605 34.0259 156.603 34.0182L156.596 33.9581V33.8101C156.596 33.5942 156.538 33.4515 156.421 33.3822C156.351 33.3421 156.229 33.322 156.055 33.322H155.796V34.0575H155.467V32.1933H156.12Z" fill="white"/>
</g>
</g>
<defs>
<clipPath id="clip0_435_9503">
<rect width="157.263" height="36" fill="white" transform="translate(0.868652)"/>
</clipPath>
</defs>
</svg>
