<svg width="100" height="100" viewBox="0 0 100 100" fill="none" xmlns="http://www.w3.org/2000/svg">
<rect x="1" y="1" width="98" height="98" rx="49" stroke="#FAF9F5" stroke-width="2"/>
<path d="M79.0625 34.5H76.1562C75.9763 34.5 75.8 34.5501 75.6469 34.6446C75.4939 34.7392 75.3702 34.8746 75.2897 35.0355L74.4657 36.6844L72.8167 37.5085C72.6662 37.5842 72.5378 37.6976 72.444 37.8376L70.7941 40.3125H69.375C69.2478 40.3125 69.1218 40.3376 69.0043 40.3863C68.8868 40.435 68.78 40.5063 68.6901 40.5963L67.7033 41.583L67.3353 40.848C67.2887 40.7549 67.2274 40.6699 67.1537 40.5963L65.2162 38.6588C65.0345 38.4772 64.7881 38.3752 64.5312 38.3752C64.2744 38.3752 64.028 38.4772 63.8463 38.6588L61.9088 40.5963C61.8188 40.6863 61.7475 40.793 61.6988 40.9105C61.6501 41.0281 61.625 41.154 61.625 41.2812V43.2188H59.6875V42.5726L62.4 38.9563C62.5079 38.8123 62.5737 38.6412 62.5898 38.462C62.606 38.2828 62.5719 38.1027 62.4915 37.9418C62.411 37.7808 62.2873 37.6455 62.1343 37.5509C61.9813 37.4563 61.8049 37.4062 61.625 37.4062H57.1823L57.4662 37.1224C57.6016 36.9869 57.6938 36.8143 57.7312 36.6264C57.7686 36.4385 57.7494 36.2438 57.6761 36.0668C57.6028 35.8898 57.4786 35.7385 57.3194 35.6321C57.1601 35.5256 56.9728 35.4688 56.7812 35.4688H54.2761L52.6224 33.8151C52.4786 33.6714 52.2933 33.5766 52.0926 33.544C51.8919 33.5114 51.6861 33.5427 51.5042 33.6335L49.8004 34.4858L34.7043 33.5426L27.0905 30.6865C26.9816 30.6458 26.8663 30.625 26.75 30.625H23.8438C23.5868 30.625 23.3404 30.7271 23.1587 30.9087C22.9771 31.0904 22.875 31.3368 22.875 31.5938V36.0364L20.2526 38.6588C20.1626 38.7488 20.0912 38.8555 20.0425 38.973C19.9938 39.0906 19.9687 39.2165 19.9688 39.3438V44.1875C19.9687 44.3147 19.9938 44.4407 20.0425 44.5582C20.0912 44.6757 20.1626 44.7825 20.2526 44.8724L21.5051 46.125L20.2526 47.3776C20.1626 47.4675 20.0912 47.5743 20.0425 47.6918C19.9938 47.8093 19.9687 47.9353 19.9688 48.0625V50.9688C19.9687 51.1888 20.0434 51.4022 20.1807 51.5742L24.0557 56.418C24.118 56.4958 24.192 56.5634 24.2751 56.6185L27.1019 58.5031L29.9401 61.3412C30.0531 61.4537 30.1919 61.5367 30.3445 61.5829C30.4971 61.6291 30.6587 61.6371 30.8151 61.6061L35.5643 60.6562H37.7762L38.4772 62.0583C38.4949 62.0943 38.5152 62.1291 38.5378 62.1624L40.4753 65.0687C40.5694 65.2099 40.6989 65.3238 40.851 65.3992C41.003 65.4746 41.1721 65.5087 41.3415 65.4982C41.5109 65.4876 41.6745 65.4328 41.816 65.3391C41.9575 65.2455 42.0719 65.1163 42.1478 64.9645L42.8488 63.5625H44.3994L45.1856 66.7034C45.2194 66.839 45.2822 66.9657 45.3695 67.0747C45.4569 67.1838 45.5668 67.2727 45.6917 67.3353L49.5667 69.2728C49.7144 69.3467 49.8786 69.3815 50.0435 69.3741C50.2085 69.3667 50.3688 69.3172 50.5093 69.2304C50.6498 69.1436 50.7657 69.0223 50.8462 68.878C50.9266 68.7338 50.9688 68.5714 50.9688 68.4062V65.9844L54.0869 63.6458L57.5153 64.5019C57.7291 64.556 57.9549 64.5352 58.1552 64.4431C58.3556 64.351 58.5183 64.1932 58.6165 63.9958L59.4056 62.4168L61.5503 61.7024L63.1292 62.4913C63.2637 62.5586 63.4121 62.5937 63.5625 62.5938H65.6486L66.4819 67.5964C66.5196 67.8226 66.6362 68.0282 66.8112 68.1765C66.9862 68.3248 67.2081 68.4062 67.4375 68.4062H70.3438C70.5237 68.4063 70.7 68.3562 70.8531 68.2616C71.0061 68.167 71.1298 68.0317 71.2103 67.8708L72.179 65.9333C72.2401 65.8109 72.2747 65.6771 72.2804 65.5404C72.2861 65.4038 72.2629 65.2675 72.2122 65.1405L70.3438 60.4699V59.1198L73.9349 55.5287C74.0249 55.4387 74.0963 55.332 74.145 55.2145C74.1937 55.0969 74.2188 54.971 74.2188 54.8438V52.9062C74.2186 52.8021 74.2017 52.6986 74.1686 52.5998L73.3503 50.1429L75.0247 47.6312C75.1308 47.472 75.1874 47.285 75.1875 47.0938V45.9131L78.3283 45.1269C78.5379 45.0746 78.724 44.9538 78.857 44.7836C78.9901 44.6133 79.0624 44.4035 79.0625 44.1875V42.25C79.0625 42.1228 79.0374 41.9968 78.9887 41.8793C78.94 41.7618 78.8687 41.655 78.7787 41.5651L77.6767 40.4631L79.5999 39.1812C79.7326 39.0928 79.8414 38.9729 79.9167 38.8322C79.9919 38.6916 80.0313 38.5345 80.0312 38.375V35.4688C80.0312 35.2118 79.9292 34.9654 79.7475 34.7837C79.5658 34.6021 79.3194 34.5 79.0625 34.5ZM78.0938 37.8566L75.6188 39.5065C75.4996 39.586 75.3995 39.691 75.3258 39.8139C75.252 39.9367 75.2064 40.0744 75.1923 40.2171C75.1782 40.3597 75.1959 40.5036 75.2442 40.6386C75.2924 40.7735 75.37 40.8961 75.4713 40.9974L77.125 42.6511V43.4307L73.9841 44.2168C73.7745 44.2691 73.5884 44.39 73.4554 44.5602C73.3224 44.7304 73.2501 44.9402 73.25 45.1562V46.8005L71.4753 49.4626C71.3935 49.5854 71.3409 49.7253 71.3214 49.8715C71.3019 50.0178 71.316 50.1665 71.3626 50.3065L72.2812 53.0637V54.4431L68.6901 58.0342C68.6001 58.1241 68.5288 58.2308 68.4801 58.3482C68.4314 58.4657 68.4063 58.5916 68.4062 58.7188V60.6562C68.4064 60.7794 68.4298 60.9014 68.4753 61.0158L70.251 65.4556L69.7449 66.4688H68.2577L67.4243 61.4661C67.3867 61.2399 67.27 61.0343 67.095 60.886C66.92 60.7377 66.6981 60.6563 66.4688 60.6562H63.7915L62.0583 59.7897C61.9446 59.7323 61.8207 59.6981 61.6936 59.6891C61.5666 59.6802 61.4391 59.6967 61.3185 59.7376L58.4123 60.7064C58.2916 60.7465 58.18 60.81 58.0839 60.8933C57.9878 60.9766 57.9091 61.078 57.8522 61.1917L57.2306 62.4339L54.1096 61.6543C53.97 61.6188 53.8242 61.6152 53.6831 61.6437C53.5419 61.6722 53.409 61.7321 53.2941 61.819L49.4191 64.7252C49.2987 64.8154 49.201 64.9323 49.1336 65.0668C49.0663 65.2013 49.0313 65.3496 49.0312 65.5V66.8387L46.9566 65.8018L46.0957 62.3591C46.0434 62.1495 45.9225 61.9634 45.7523 61.8304C45.5821 61.6974 45.3723 61.6251 45.1562 61.625H42.25C42.0701 61.625 41.8937 61.6751 41.7407 61.7696C41.5876 61.8642 41.4639 61.9996 41.3835 62.1605L41.1611 62.6051L40.1829 61.1378L39.2415 59.2542C39.1611 59.0933 39.0374 58.958 38.8843 58.8634C38.7313 58.7688 38.5549 58.7187 38.375 58.7188H35.4688C35.4049 58.7189 35.3413 58.7253 35.2786 58.7376L30.9435 59.6042L28.4037 57.0651C28.3587 57.0198 28.3092 56.9793 28.256 56.944L25.4748 55.0897L21.9062 50.6297V48.4636L23.5599 46.8099C23.7415 46.6282 23.8435 46.3819 23.8435 46.125C23.8435 45.8681 23.7415 45.6218 23.5599 45.4401L21.9062 43.7864V39.7448L24.5287 37.1224C24.6187 37.0325 24.69 36.9257 24.7387 36.8082C24.7874 36.6907 24.8125 36.5647 24.8125 36.4375V32.5625H26.5741L34.1594 35.4072C34.2493 35.4408 34.3437 35.4608 34.4395 35.4668L49.9395 36.4356C50.11 36.4456 50.2802 36.411 50.4333 36.3353L51.7464 35.6787L53.1901 37.1224C53.28 37.2124 53.3868 37.2838 53.5043 37.3325C53.6218 37.3812 53.7478 37.4063 53.875 37.4062H54.4426L54.1588 37.6901C54.0234 37.8256 53.9312 37.9982 53.8938 38.1861C53.8564 38.374 53.8756 38.5687 53.9489 38.7457C54.0222 38.9227 54.1464 39.074 54.3056 39.1804C54.4649 39.2869 54.6522 39.3437 54.8438 39.3438H59.6875L57.9438 41.6687C57.8178 41.8363 57.7498 42.0404 57.75 42.25V44.1875C57.75 44.4444 57.8521 44.6908 58.0337 44.8725C58.2154 45.0542 58.4618 45.1562 58.7188 45.1562H62.5938C62.8507 45.1562 63.0971 45.0542 63.2788 44.8725C63.4604 44.6908 63.5625 44.4444 63.5625 44.1875V41.6823L64.5312 40.7136L65.6722 41.8555L66.571 43.652C66.6396 43.7893 66.7399 43.9083 66.8636 43.9992C66.9873 44.0901 67.1308 44.1504 67.2823 44.1749C67.4338 44.1995 67.589 44.1877 67.735 44.1406C67.8811 44.0934 68.0139 44.0122 68.1224 43.9037L69.7761 42.25H71.3125C71.472 42.25 71.629 42.2106 71.7696 42.1354C71.9102 42.0601 72.03 41.9513 72.1185 41.8187L73.9132 39.1258L75.6207 38.2724C75.8082 38.1787 75.9602 38.0267 76.0539 37.8392L76.7551 36.4375H78.0938V37.8566Z" fill="white"/>
<path d="M45.1562 43.2188H43.2188C42.7051 43.2194 42.2127 43.4238 41.8495 43.787C41.4863 44.1502 41.2819 44.6426 41.2812 45.1562V47.0938C41.2819 47.6074 41.4863 48.0998 41.8495 48.463C42.2127 48.8262 42.7051 49.0306 43.2188 49.0312H45.1562V50.9688H43.2188V50H41.2812V50.9688C41.2819 51.4824 41.4863 51.9748 41.8495 52.338C42.2127 52.7012 42.7051 52.9056 43.2188 52.9062H45.1562C45.6699 52.9056 46.1623 52.7012 46.5255 52.338C46.8887 51.9748 47.0931 51.4824 47.0938 50.9688V49.0312C47.0931 48.5176 46.8887 48.0252 46.5255 47.662C46.1623 47.2988 45.6699 47.0944 45.1562 47.0938H43.2188V45.1562H45.1562V46.125H47.0938V45.1562C47.0931 44.6426 46.8887 44.1502 46.5255 43.787C46.1623 43.4238 45.6699 43.2194 45.1562 43.2188Z" fill="white"/>
<path d="M38.375 50C38.375 50.2569 38.2729 50.5033 38.0913 50.685C37.9096 50.8667 37.6632 50.9688 37.4062 50.9688C37.1493 50.9688 36.9029 50.8667 36.7212 50.685C36.5396 50.5033 36.4375 50.2569 36.4375 50V43.2188H34.5V50C34.5 50.7708 34.8062 51.51 35.3512 52.055C35.8962 52.6001 36.6355 52.9062 37.4062 52.9062C38.177 52.9062 38.9163 52.6001 39.4613 52.055C40.0063 51.51 40.3125 50.7708 40.3125 50V43.2188H38.375V50Z" fill="white"/>
<path d="M50.9688 43.2188C50.1982 43.2196 49.4595 43.5261 48.9147 44.0709C48.3698 44.6158 48.0634 45.3545 48.0625 46.125V52.9062H50V50H51.9375V52.9062H53.875V46.125C53.8741 45.3545 53.5677 44.6158 53.0228 44.0709C52.478 43.5261 51.7393 43.2196 50.9688 43.2188ZM50 48.0625V46.125C50 45.8681 50.1021 45.6217 50.2837 45.44C50.4654 45.2583 50.7118 45.1562 50.9688 45.1562C51.2257 45.1562 51.4721 45.2583 51.6538 45.44C51.8354 45.6217 51.9375 45.8681 51.9375 46.125V48.0625H50Z" fill="white"/>
</svg>
