<svg width="26" height="24" viewBox="0 0 26 24" fill="none" xmlns="http://www.w3.org/2000/svg">
<path d="M12.5684 0.77832C12.7612 0.447314 13.2388 0.447313 13.4316 0.77832L16.8721 6.68457C17.084 7.04835 17.4391 7.30635 17.8506 7.39551L24.5312 8.8418C24.9056 8.92303 25.0531 9.37836 24.7979 9.66406L20.2441 14.7607C19.9636 15.0748 19.8277 15.4922 19.8701 15.9111L20.5586 22.7109C20.5972 23.0922 20.21 23.3742 19.8594 23.2197L13.6045 20.4629C13.2194 20.2933 12.7806 20.2933 12.3955 20.4629L6.14062 23.2197C5.78997 23.3742 5.40281 23.0922 5.44141 22.7109L6.12988 15.9111C6.17229 15.4922 6.03644 15.0748 5.75586 14.7607L1.20215 9.66406C0.946871 9.37836 1.09438 8.92303 1.46875 8.8418L8.14941 7.39551C8.56087 7.30635 8.916 7.04835 9.12793 6.68457L12.5684 0.77832Z" fill="#FAFAFA" stroke="#DFDEDE"/>
</svg>
